<svg width="562" height="447" viewBox="0 0 562 447" fill="none" xmlns="http://www.w3.org/2000/svg">
<g clip-path="url(#clip0_316_229)">
<path d="M289.148 65.0314C284.092 56.6831 278.101 47.7695 268.719 45.0435C257.854 41.8867 246.693 48.1579 237.225 54.3462C208.912 72.8536 181.647 92.9104 155.553 114.425L155.581 114.749C175.896 113.35 196.211 111.951 216.527 110.553C231.204 109.542 246.386 108.392 259.357 101.46C264.279 98.8293 269.077 95.3154 274.655 95.0705C281.584 94.7664 287.626 99.5981 292.374 104.646C320.462 134.507 328.59 180.172 360.101 206.407C340.231 157.483 316.506 110.21 289.148 65.0314Z" fill="#F2F2F2"/>
<path d="M461.797 318.308C458.691 314.392 457.422 313.475 454.358 309.523C429.412 277.31 405.964 244.009 384.015 209.62C369.106 186.265 354.937 162.46 341.507 138.208C335.113 126.678 328.894 115.057 322.851 103.346C318.162 94.2656 313.577 85.1309 309.097 75.9419C307.815 73.3173 306.57 70.6806 305.332 68.0379C302.413 61.8234 299.548 55.5788 296.472 49.4487C292.967 42.4619 288.701 35.1372 282.264 30.4432C279.335 28.2193 275.833 26.8737 272.166 26.5636C266.927 26.2258 262.092 28.3858 257.548 30.7449C224.298 48.055 193.169 69.7575 165.014 94.4527C136.786 119.203 111.555 147.166 89.8354 177.769C89.1709 178.717 87.5996 177.812 88.2703 176.858C90.9113 173.13 93.6046 169.441 96.3502 165.793C130.49 120.461 172.351 81.4775 220.019 50.6252C228.039 45.4364 236.209 40.491 244.53 35.7888C248.724 33.4177 252.937 31.0767 257.221 28.8805C261.421 26.7265 265.881 24.7898 270.68 24.7174C287.008 24.464 295.463 42.9265 301.271 55.3495C303.096 59.2592 304.943 63.1568 306.812 67.0424C313.877 81.7943 321.213 96.4115 328.822 110.894C333.517 119.836 338.316 128.725 343.217 137.562C358.47 165.081 374.682 192.043 391.853 218.447C414.6 253.423 437.165 284.321 463.079 317.029C463.792 317.934 462.517 319.225 461.797 318.308Z" fill="#E4E4E4"/>
<path d="M163.4 85.336C162.451 84.2802 161.508 83.2243 160.554 82.1684C153.024 73.8542 144.944 65.6366 134.604 60.8701C129.674 58.5257 124.292 57.2801 118.831 57.2199C113.187 57.238 107.669 58.7162 102.454 60.7857C99.9883 61.7692 97.5769 62.8853 95.2021 64.0739C92.4886 65.4375 89.8234 66.8916 87.1706 68.3577C82.1908 71.109 77.2757 73.981 72.4251 76.9736C62.774 82.9286 53.425 89.3382 44.3784 96.2023C39.6887 99.7621 35.0957 103.439 30.5996 107.232C26.4177 110.755 22.3204 114.373 18.3077 118.086C17.4496 118.876 16.1684 117.597 17.0265 116.807C18.084 115.823 19.1537 114.846 20.2234 113.881C23.245 111.153 26.315 108.479 29.4334 105.856C35.1199 101.065 40.9537 96.4598 46.9346 92.0393C56.2353 85.161 65.8561 78.7494 75.797 72.8044C80.7647 69.836 85.8008 66.9922 90.9052 64.273C92.4464 63.4525 94.0056 62.65 95.5828 61.8898C99.1616 60.0875 102.88 58.5762 106.702 57.3707C112.117 55.622 117.845 55.0602 123.496 55.7236C128.953 56.516 134.211 58.3319 138.991 61.0753C149.144 66.7408 157.018 75.5014 164.681 84.0509C165.455 84.9197 164.18 86.2049 163.4 85.336Z" fill="#E4E4E4"/>
<path d="M371.423 171.493L395.751 162.609L407.83 158.198C411.764 156.762 415.688 155.126 419.755 154.098C423.289 153.09 427.041 153.138 430.549 154.235C433.676 155.391 436.539 157.163 438.968 159.446C441.448 161.726 443.756 164.187 445.873 166.808C448.503 169.963 451.094 173.152 453.696 176.329C464.438 189.445 475.109 202.617 485.71 215.846C496.31 229.075 506.84 242.36 517.299 255.701C527.784 269.075 538.196 282.505 548.537 295.991C549.803 297.643 551.069 299.295 552.333 300.949C553.032 301.863 554.607 300.962 553.899 300.036C543.482 286.414 532.993 272.849 522.431 259.339C511.843 245.797 501.182 232.312 490.448 218.885C479.714 205.458 468.908 192.089 458.029 178.779C455.319 175.463 452.604 172.15 449.885 168.841C447.591 166.05 445.323 163.229 442.807 160.631C438.189 155.863 432.42 151.649 425.513 151.535C421.453 151.467 417.523 152.754 413.75 154.116C409.683 155.585 405.626 157.082 401.564 158.565L377.065 167.511L370.941 169.748C369.854 170.144 370.323 171.894 371.423 171.493V171.493Z" fill="#E4E4E4"/>
<path d="M131.402 71.3319C119.039 64.9882 103.207 66.2306 91.8459 74.1562C113.516 77.8887 134.948 82.8829 156.034 89.1133C147.278 83.9902 140.429 75.9636 131.402 71.3319Z" fill="#F2F2F2"/>
<path d="M91.7243 74.1343L89.3442 76.0658C90.1493 75.3898 90.9862 74.756 91.846 74.1562C91.8053 74.1492 91.7649 74.1413 91.7243 74.1343Z" fill="#F2F2F2"/>
<path d="M438.051 171.582C435.657 168.671 433.067 165.624 429.485 164.442L426.141 164.574C451.599 209.485 485.981 248.729 527.177 279.896C497.469 243.791 467.76 207.686 438.051 171.582Z" fill="#F2F2F2"/>
<path d="M123.646 320.582C122.186 322.549 120.632 324.451 118.986 326.268C104.661 328.684 91.3732 331.296 79.1994 333.951C75.6789 334.717 72.2551 335.487 68.928 336.261L69.0051 336.023C67.8923 327.417 69.1266 318.67 72.5779 310.706C72.7914 310.217 73.0115 309.728 73.2381 309.246C75.5049 304.382 78.5844 299.938 82.3446 296.106C88.0647 290.312 95.2142 285.974 102.537 281.899C116.245 274.275 130.534 267.541 137.098 253.803C139.824 265.243 140.034 277.138 137.712 288.666C135.389 300.195 130.59 311.084 123.646 320.582Z" fill="#E6E6E6"/>
<path d="M49.2933 283.961C55.7167 277.519 61.1725 270.183 65.4913 262.181C69.7972 254.22 72.9554 245.692 74.8725 236.849C76.816 227.875 77.4077 218.661 76.6278 209.512C75.0136 190.88 67.9646 173.129 56.3525 158.454C55.6435 157.562 54.9177 156.683 54.1753 155.818C53.3476 154.85 51.9666 156.265 52.7886 157.225C64.6295 171.163 72.1177 188.261 74.3265 206.403C75.9303 220.268 74.3859 234.314 69.8082 247.501C65.2304 260.688 57.7367 272.677 47.8833 282.576C46.9832 283.477 48.3933 284.862 49.2934 283.961H49.2933Z" fill="#9BBDA8"/>
<path d="M57.1638 160.124C56.3607 159.832 55.5738 159.497 54.8066 159.121C54.7685 159.18 54.7313 159.241 54.6931 159.301L57.1638 160.124Z" fill="#E6E6E6"/>
<path d="M57.8234 134.721C55.03 131.286 49.7322 129.779 45.9275 132.049C43.3764 133.571 41.8659 136.5 41.6003 139.455C41.4354 142.436 42.1019 145.403 43.5256 148.028C45.982 152.849 49.9412 156.742 54.8065 159.121C57.1499 155.445 59.3444 151.583 60.2566 147.325C61.1837 142.998 60.6167 138.156 57.8234 134.721Z" fill="#9BBDA8"/>
<path d="M92.1553 159.117C93.5297 153.439 93.655 147.532 92.5225 141.802C91.39 136.072 89.0267 130.654 85.5954 125.924C84.9934 137.509 72.9024 144.983 68.5422 155.735C67.2079 159.099 66.6491 162.72 66.9069 166.329C67.1648 169.938 68.2328 173.442 70.0317 176.583L70.7735 185.364C76.0258 182.792 80.6571 179.114 84.3484 174.582C88.0397 170.051 90.7031 164.775 92.1553 159.117Z" fill="#9BBDA8"/>
<path d="M113.956 191.796C107.961 201.732 93.7687 202.642 84.8507 210.077C82.0871 212.418 79.8864 215.349 78.4117 218.654C76.937 221.959 76.2261 225.553 76.3317 229.17L72.8445 237.265C78.6963 237.505 84.5294 236.456 89.9291 234.191C95.3288 231.927 100.163 228.502 104.087 224.162C108.012 219.821 110.93 214.671 112.636 209.077C114.341 203.483 114.792 197.583 113.956 191.796Z" fill="#9BBDA8"/>
<path d="M58.1656 213.882C53.6251 217.576 49.9552 222.222 47.4166 227.492C44.878 232.762 43.5331 238.525 43.4774 244.372C43.4217 250.219 44.6566 256.006 47.0944 261.323C49.5322 266.64 53.113 271.355 57.5824 275.134L60.5062 266.82C63.0367 264.23 64.9509 261.104 66.1071 257.675C67.2633 254.246 67.6318 250.601 67.1852 247.011C65.6653 235.51 55.8383 225.248 58.1656 213.882Z" fill="#9BBDA8"/>
<path d="M58.8229 326.13C56.43 333.251 50.6488 338.822 44.0473 342.47C43.6995 342.664 43.3517 342.851 43.0038 343.032C42.715 343.185 42.4196 343.333 42.1241 343.473C39.7421 344.007 37.3396 344.461 34.9508 344.968C34.9442 344.968 34.9377 344.975 34.9311 344.975C31.3664 345.978 28.0037 346.956 24.8429 347.908C23.0674 348.437 21.3511 348.958 19.7073 349.472C19.4902 349.533 19.2798 349.6 19.0628 349.668C18.7801 349.756 18.504 349.844 18.2277 349.925C18.221 349.912 18.2144 349.905 18.2143 349.892C18.2077 349.886 18.2077 349.886 18.2142 349.879C16.9446 347.046 15.7144 344.206 14.5367 341.32C9.89079 330.219 6.20233 318.743 3.51148 307.016C0.326495 292.694 -0.942418 278.093 0.755487 263.52C1.93217 253.496 4.68266 243.721 8.90587 234.552C9.51464 233.243 10.1521 231.95 10.8183 230.672C11.0193 230.269 11.2269 229.872 11.4477 229.476L11.4477 229.469C11.4671 229.429 11.4932 229.39 11.5192 229.343L11.6165 229.165L11.6165 229.158C12.1943 228.087 12.7964 227.031 13.4227 225.991C16.5304 220.749 20.2059 215.865 24.383 211.426C31.4471 203.798 40.1682 197.887 49.8767 194.148L49.8833 194.147C50.3498 193.966 50.8231 193.797 51.2963 193.629C51.116 194.137 50.9356 194.639 50.7618 195.147C48.3928 201.979 46.5731 208.989 45.32 216.109C45.2257 216.656 45.1314 217.21 45.0438 217.764C42.2317 234.943 42.6397 252.495 46.247 269.526C46.254 269.572 46.2675 269.618 46.2745 269.664C47.0773 273.435 48.0424 277.166 49.1697 280.855C49.1969 280.96 49.2241 281.059 49.2579 281.164C49.4749 281.879 49.705 282.595 49.935 283.304C50.6049 285.371 51.3274 287.423 52.1025 289.459C56.6186 301.341 62.8756 314.084 58.8229 326.13Z" fill="#F0F0F0"/>
<path d="M51.5845 194.193C51.3037 194.511 51.0295 194.829 50.7618 195.147C45.0126 201.834 40.0216 209.136 35.8799 216.918C35.6722 217.308 35.4645 217.705 35.2635 218.102C29.607 228.966 25.6703 240.639 23.5936 252.707C23.6003 252.714 23.6003 252.714 23.5937 252.72C23.5749 252.832 23.5561 252.944 23.5373 253.063C23.5439 253.069 23.544 253.076 23.5374 253.076C23.0599 255.897 22.6947 258.743 22.4416 261.589C21.9654 266.937 21.9451 272.407 23.1625 277.669C24.174 282 26.1852 286.036 29.0358 289.454C29.3089 289.8 29.5952 290.14 29.8947 290.48C30.1277 290.748 30.3673 291.016 30.6134 291.277C32.9084 293.752 35.4396 296.088 37.5843 298.722C38.5648 299.91 39.438 301.183 40.1937 302.525C42.7239 307.111 42.8664 312.342 41.1933 317.246C39.1536 323.246 35.081 328.164 30.9205 332.825C26.4597 337.832 21.756 342.965 19.7073 349.472C19.4903 349.533 19.2799 349.6 19.0629 349.668C18.7801 349.756 18.504 349.844 18.2278 349.925C18.2951 350.089 18.369 350.253 18.4428 350.417C18.3674 350.361 18.3067 350.287 18.2658 350.203C18.2249 350.118 18.2051 350.025 18.2081 349.932C18.2069 349.918 18.2091 349.905 18.2143 349.892C18.2077 349.886 18.2077 349.886 18.2142 349.879C18.2139 349.832 18.2202 349.786 18.2328 349.741C18.7469 347.936 19.4482 346.19 20.3253 344.53C20.3252 344.517 20.3252 344.517 20.3317 344.51C25.0173 335.626 33.8976 329.345 38.4631 320.29C40.9924 315.287 42.0186 309.493 39.5686 304.248C38.8441 302.731 37.9474 301.303 36.8961 299.992C34.8437 297.363 32.3325 295.054 30.0644 292.644C29.4991 292.05 28.96 291.442 28.4406 290.821C25.6087 287.567 23.5087 283.744 22.2821 279.611C20.8018 274.437 20.6044 268.956 20.9422 263.615C21.1575 260.184 21.5574 256.752 22.1156 253.345C22.1845 252.903 22.26 252.468 22.342 252.026L22.3419 252.02C26.1823 230.621 35.6896 210.639 49.8767 194.148L49.8833 194.148C50.1443 193.829 50.4186 193.511 50.6929 193.2C51.2611 192.556 52.1528 193.556 51.5845 194.193Z" fill="white"/>
<path d="M22.7333 253.503C18.5924 252.536 14.9307 250.13 12.4022 246.716C9.87362 243.302 8.64289 239.102 8.92978 234.866C8.94308 234.693 9.02298 234.533 9.15265 234.418C9.28232 234.303 9.45164 234.242 9.62492 234.249C9.79821 234.257 9.96193 234.331 10.0816 234.456C10.2012 234.581 10.2675 234.748 10.2664 234.921C9.99195 238.866 11.1388 242.778 13.4998 245.952C15.8609 249.126 19.2807 251.354 23.1421 252.231C23.9809 252.423 23.5674 253.694 22.7333 253.503L22.7333 253.503Z" fill="white"/>
<path d="M28.6813 289.671C36.1081 285.159 41.5588 278.019 43.9466 269.673C44.1825 268.846 45.4557 269.255 45.2201 270.081C42.719 278.761 37.0316 286.18 29.2927 290.858C28.5548 291.304 27.9474 290.114 28.6813 289.671H28.6813Z" fill="white"/>
<path d="M35.4998 216.759C37.0239 217.467 38.7002 217.785 40.3781 217.686C42.056 217.587 43.683 217.074 45.113 216.192C45.8449 215.737 46.4516 216.928 45.7244 217.379C44.14 218.346 42.3424 218.911 40.4889 219.025C38.6353 219.138 36.782 218.797 35.0911 218.03C34.9256 217.972 34.7889 217.852 34.7085 217.696C34.6282 217.54 34.6104 217.359 34.6587 217.191C34.7137 217.023 34.8329 216.883 34.9904 216.802C35.1479 216.721 35.3309 216.706 35.4998 216.759Z" fill="white"/>
<path d="M139.285 246.598C138.833 246.891 138.394 247.191 137.941 247.491C137.941 247.492 137.941 247.493 137.941 247.493C137.94 247.494 137.94 247.495 137.939 247.496C137.939 247.496 137.938 247.497 137.937 247.497C137.936 247.497 137.936 247.498 137.935 247.498C131.923 251.517 126.248 256.017 120.966 260.954L120.96 260.96C120.541 261.339 120.129 261.724 119.723 262.109C107.156 274.117 96.9196 288.34 89.5306 304.062L89.4723 304.181C86.5393 310.462 84.0878 316.955 82.1389 323.606C81.1517 326.977 80.2317 330.487 79.1992 333.951C75.6787 334.717 72.2549 335.487 68.9278 336.261C64.7037 337.237 60.6355 338.216 56.7234 339.199C55.0261 339.615 53.3595 340.034 51.7237 340.458C48.6361 341.79 45.4192 342.8 42.124 343.473C39.742 344.007 37.3395 344.461 34.9507 344.968C34.9441 344.968 34.9376 344.975 34.931 344.975C31.3663 345.978 28.0036 346.956 24.8428 347.909C23.0673 348.437 21.351 348.958 19.7071 349.472C19.4901 349.533 19.2797 349.6 19.0627 349.668C19.4704 347.96 19.8845 346.239 20.3251 344.53C20.325 344.517 20.325 344.517 20.3316 344.51C24.2575 329.116 29.5034 313.914 36.896 299.992C37.1166 299.569 37.3371 299.139 37.5842 298.722C40.5803 293.155 43.9772 287.812 47.7481 282.736C48.2043 282.107 48.6804 281.485 49.163 280.862L49.1695 280.855C51.1915 278.258 53.3262 275.742 55.5737 273.305C55.9656 272.874 56.3708 272.443 56.776 272.018C56.972 271.813 57.1747 271.607 57.3773 271.401C58.1355 270.618 58.9135 269.842 59.7049 269.092C60.9475 267.896 62.2299 266.734 63.5389 265.604C68.8007 261.084 74.5368 257.146 80.6471 253.858C80.6865 253.838 80.7324 253.811 80.7718 253.791C98.4067 244.338 118.871 240.614 137.831 246.156C138.32 246.303 138.796 246.444 139.285 246.598Z" fill="#F0F0F0"/>
<path d="M24.8428 347.908C28.1043 346.612 31.4824 345.63 34.931 344.975C31.3664 345.978 28.0036 346.956 24.8428 347.908Z" fill="white"/>
<path d="M139.179 247.224C138.764 247.306 138.349 247.395 137.941 247.491C129.318 249.378 120.93 252.209 112.928 255.933C112.521 256.12 112.12 256.308 111.726 256.502C100.658 261.779 90.4758 268.736 81.5402 277.124C81.5402 277.125 81.5401 277.126 81.5398 277.126C81.5394 277.127 81.539 277.128 81.5384 277.129C81.5377 277.129 81.537 277.13 81.5362 277.13C81.5354 277.13 81.5345 277.13 81.5337 277.13C81.4459 277.205 81.3629 277.285 81.2852 277.369C81.2852 277.376 81.2852 277.376 81.2786 277.376C79.1986 279.335 77.194 281.381 75.2649 283.514C71.6591 287.5 68.3399 291.858 66.1396 296.787C64.3406 300.855 63.5132 305.285 63.7227 309.727C63.7396 310.168 63.7631 310.615 63.7998 311.062C63.8225 311.417 63.8519 311.773 63.8878 312.134C64.3834 317.014 65.4531 321.954 64.7492 326.87C64.0078 332.037 60.9843 336.281 56.7236 339.199C55.0262 339.615 53.3596 340.034 51.7239 340.458C52.0392 340.324 52.3478 340.177 52.6564 340.023C57.692 337.539 62.0096 333.534 63.2149 327.877C64.2679 322.925 63.1641 317.834 62.6218 312.895C62.5361 312.099 62.4702 311.317 62.4307 310.534C62.425 310.499 62.4225 310.464 62.4233 310.429C62.1265 306.139 62.756 301.835 64.2693 297.809C66.2052 292.791 69.3584 288.296 72.8448 284.232C75.0908 281.62 77.4762 279.119 79.9746 276.742C80.295 276.423 80.6221 276.118 80.9492 275.819C90.0866 267.369 100.463 260.362 111.721 255.041C120.059 251.102 128.819 248.121 137.831 246.156C138.239 246.067 138.654 245.978 139.062 245.895C139.904 245.724 140.014 247.052 139.179 247.224Z" fill="white"/>
<path d="M80.3724 277.236C77.6494 273.974 76.1763 269.853 76.2161 265.607C76.256 261.361 77.8061 257.268 80.5898 254.058C81.1553 253.41 82.1898 254.257 81.6236 254.906C79.0259 257.89 77.5822 261.703 77.5532 265.657C77.5242 269.611 78.9118 273.444 81.4654 276.466C82.0196 277.124 80.9233 277.889 80.3724 277.236Z" fill="white"/>
<path d="M63.3105 309.689C71.9611 310.551 80.6192 308.126 87.5585 302.898C88.2456 302.379 89.0155 303.471 88.3292 303.989C81.0978 309.416 72.0825 311.922 63.0825 311.005C62.2248 310.917 62.4574 309.601 63.3105 309.689H63.3105Z" fill="white"/>
<path d="M112.723 255.572C113.514 257.053 114.66 258.315 116.059 259.244C117.459 260.174 119.068 260.742 120.741 260.897C121.6 260.974 121.366 262.29 120.513 262.213C118.665 262.033 116.889 261.403 115.341 260.38C113.792 259.356 112.518 257.97 111.63 256.341C111.534 256.195 111.497 256.017 111.527 255.844C111.557 255.671 111.651 255.517 111.792 255.411C111.937 255.31 112.116 255.27 112.291 255.3C112.465 255.33 112.621 255.428 112.723 255.572Z" fill="white"/>
<path d="M209.549 293.26C207.617 301.869 202.986 309.639 196.329 315.441C195.848 315.863 195.355 316.273 194.851 316.673C193.617 316.781 192.388 316.895 191.176 317.014C190.169 317.106 189.171 317.201 188.182 317.3C188.123 317.306 188.063 317.311 188.009 317.316L187.884 316.236L187.381 311.869C185.437 308.7 184.232 305.136 183.855 301.439C183.478 297.743 183.94 294.009 185.205 290.514C186.942 285.828 190.098 281.688 193.195 277.586C197.472 271.911 201.635 266.301 201.786 259.388C206.543 265.528 209.47 272.883 210.231 280.607C210.674 284.834 210.444 289.105 209.549 293.26Z" fill="#E6E6E6"/>
<path d="M231.436 276.008C221.783 283.013 222.114 297.589 215.287 307.361C213.207 310.309 210.499 312.761 207.357 314.538C206.499 315.026 205.613 315.463 204.704 315.846C201.358 316.106 198.074 316.381 194.851 316.673C193.617 316.781 192.388 316.895 191.176 317.014C190.169 317.106 189.171 317.201 188.182 317.3C188.177 316.938 188.177 316.571 188.187 316.208C188.394 306.568 191.945 297.297 198.235 289.979C198.533 289.633 198.836 289.298 199.144 288.963C202.332 285.563 206.082 282.736 210.231 280.607C216.763 277.216 224.083 275.628 231.436 276.008Z" fill="#F2F2F2"/>
<path d="M192.318 313.636L191.56 315.879L191.176 317.014C190.169 317.106 189.171 317.201 188.182 317.3C188.123 317.306 188.063 317.311 188.009 317.316C186.91 317.43 185.822 317.538 184.739 317.652C184.452 317.322 184.171 316.987 183.895 316.646C177.014 308.327 173.712 297.627 174.709 286.884C175.706 276.141 180.922 266.228 189.216 259.313C188.004 265.642 190.44 271.587 193.195 277.586C195.074 281.651 197.098 285.737 198.235 289.979C198.525 291.042 198.751 292.122 198.912 293.211C199.418 296.892 199.089 300.638 197.947 304.174C196.806 307.71 194.882 310.944 192.318 313.636Z" fill="#F2F2F2"/>
<path d="M383.517 317.926C383.325 318.232 383.123 318.53 382.917 318.823C382.426 318.771 381.939 318.723 381.452 318.67C380.602 318.583 379.752 318.495 378.905 318.408C378.799 318.399 378.694 318.386 378.589 318.377L378.063 317.357L377.081 315.457C374.696 313.615 372.758 311.261 371.41 308.569C370.061 305.877 369.338 302.917 369.293 299.907C369.262 295.853 370.464 291.813 371.63 287.816C373.239 282.295 374.778 276.854 372.906 271.579C378.273 274.87 382.604 279.603 385.403 285.237C386.951 288.31 388.003 291.608 388.521 295.008C389.66 302.999 387.884 311.133 383.517 317.926Z" fill="#E6E6E6"/>
<path d="M396.922 304.044C396.163 306.956 394.757 309.661 392.808 311.957C390.86 314.253 388.419 316.082 385.666 317.309L384.986 318.088L384.223 318.968C383.789 318.92 383.351 318.872 382.917 318.823C382.426 318.771 381.939 318.723 381.452 318.67C380.602 318.583 379.752 318.495 378.905 318.408C378.782 318.079 378.672 317.746 378.567 317.409C376.327 310.341 376.483 302.733 379.01 295.761C379.133 295.416 379.264 295.074 379.404 294.737C380.844 291.251 382.873 288.037 385.403 285.237C389.372 280.795 394.459 277.492 400.136 275.672C394.843 283.74 399.281 294.689 396.922 304.044Z" fill="#F2F2F2"/>
<path d="M381.417 317.703L381.452 318.67C380.601 318.583 379.752 318.495 378.904 318.408C378.799 318.399 378.694 318.386 378.589 318.377C376.506 318.167 374.433 317.97 372.371 317.786C371.911 317.44 371.455 317.081 371.012 316.7C365.058 311.764 361.03 304.897 359.632 297.298C358.233 289.699 359.553 281.851 363.36 275.125C364.259 280.264 367.815 284.068 371.63 287.816C374.217 290.359 376.927 292.876 379.01 295.761C379.535 296.485 380.016 297.24 380.452 298.02C381.892 300.664 382.719 303.596 382.87 306.602C383.022 309.607 382.495 312.608 381.329 315.383L381.417 317.703Z" fill="#F2F2F2"/>
<path d="M557.148 356.371C557.108 356.505 557.025 356.622 556.912 356.705C556.799 356.788 556.662 356.833 556.522 356.831C556.455 356.83 556.388 356.819 556.324 356.799C497.683 338.29 437.352 325.618 376.213 318.968C375.56 318.895 374.901 318.823 374.248 318.751C373.51 318.672 372.778 318.599 372.047 318.52C370.768 318.389 369.491 318.257 368.216 318.125C368.058 318.112 367.9 318.093 367.742 318.079C364.611 317.763 361.495 317.467 358.394 317.191C306.662 312.53 254.631 312.169 202.839 316.111C198.765 316.427 194.766 316.763 190.841 317.118C189.338 317.25 187.842 317.388 186.365 317.533C185.139 317.645 183.924 317.761 182.72 317.882C182.647 317.889 182.575 317.895 182.509 317.902C181.17 318.04 179.845 318.172 178.527 318.31C173.141 318.869 167.907 319.462 162.824 320.087C64.0671 332.177 2.39081 356.542 1.77774 356.785C1.61514 356.85 1.43351 356.847 1.27279 356.778C1.11208 356.709 0.985452 356.579 0.920763 356.417C0.856074 356.255 0.858623 356.073 0.927854 355.913C0.997085 355.752 1.12733 355.626 1.28992 355.561C1.90299 355.318 63.7046 330.9 162.613 318.79C167.564 318.185 172.526 317.616 177.499 317.086C179.12 316.914 180.735 316.75 182.357 316.585C182.482 316.572 182.607 316.566 182.726 316.552C184.097 316.414 185.462 316.283 186.833 316.151C188.771 315.967 190.703 315.789 192.641 315.618C197.11 315.216 201.586 314.85 206.069 314.519C250.306 311.246 294.721 311.136 338.974 314.19C344.768 314.591 350.56 315.047 356.351 315.559C359.884 315.861 363.417 316.197 366.951 316.546C367.201 316.572 367.452 316.599 367.709 316.625C369.139 316.763 370.563 316.914 371.994 317.066C373.049 317.171 374.097 317.283 375.151 317.401C375.89 317.48 376.628 317.559 377.36 317.645C438.243 324.401 498.316 337.096 556.719 355.548C556.802 355.573 556.879 355.614 556.946 355.67C557.013 355.725 557.068 355.793 557.107 355.869C557.147 355.946 557.172 356.03 557.178 356.116C557.185 356.202 557.175 356.289 557.148 356.371Z" fill="#CCCCCC"/>
<path d="M176.445 187.826C177.992 193.439 181.479 198.325 186.288 201.62C188.147 202.883 190.346 204.096 190.982 206.249C191.317 207.622 191.111 209.071 190.406 210.297C189.703 211.507 188.848 212.622 187.861 213.615L187.771 213.952C183.157 211.222 178.768 207.77 176.22 203.059C173.671 198.348 173.316 192.174 176.445 187.825" fill="#F2F2F2"/>
<path d="M408.923 212.273C406.375 207.562 406.019 201.388 409.148 197.04C410.696 202.653 414.182 207.54 418.991 210.834C420.85 212.097 423.05 213.31 423.686 215.464C424.02 216.837 423.814 218.285 423.11 219.511C422.407 220.721 421.551 221.836 420.564 222.829L420.474 223.166C415.861 220.437 411.472 216.984 408.923 212.273Z" fill="#F2F2F2"/>
<path d="M309.381 330.083C306.833 325.372 306.477 319.197 309.606 314.849C311.154 320.463 314.64 325.349 319.449 328.643C321.308 329.907 323.508 331.119 324.144 333.273C324.478 334.646 324.272 336.095 323.568 337.321C322.865 338.531 322.009 339.646 321.022 340.639L320.932 340.976C316.319 338.246 311.93 334.794 309.381 330.083Z" fill="#F2F2F2"/>
<path d="M448.806 67.1317C467.374 67.1317 482.426 52.1038 482.426 33.5659C482.426 15.028 467.374 0 448.806 0C430.238 0 415.186 15.028 415.186 33.5659C415.186 52.1038 430.238 67.1317 448.806 67.1317Z" fill="#FF9254"/>
<path d="M509.477 7.81255C493.183 5.61366 474.581 14.4064 470.358 30.2711C469.294 27.4503 467.359 25.0404 464.833 23.3895C462.307 21.7385 459.321 20.932 456.306 21.0865C453.291 21.2409 450.403 22.3484 448.059 24.2488C445.716 26.1492 444.038 28.7442 443.269 31.6589L445.134 32.9928C480.051 40.5315 516.196 40.3683 551.043 32.5147C539.709 20.6226 525.771 10.0114 509.477 7.81255Z" fill="#F0F0F0"/>
<path d="M439.6 52.567C423.306 50.3682 404.704 59.1609 400.481 75.0256C399.417 72.2048 397.482 69.7949 394.956 68.1439C392.43 66.493 389.444 65.6865 386.429 65.8409C383.414 65.9954 380.526 67.1029 378.182 69.0033C375.839 70.9037 374.161 73.4987 373.392 76.4134L375.257 77.7473C410.174 85.286 446.319 85.1228 481.166 77.2692C469.832 65.3771 455.894 54.7658 439.6 52.567Z" fill="#F0F0F0"/>
<path d="M506.451 308.436C505.65 308.138 504.866 307.796 504.102 307.413C504.063 307.473 504.025 307.533 503.987 307.593L506.451 308.436Z" fill="#E6E6E6"/>
<path d="M151.829 49.0507C149.28 44.3398 148.924 38.1655 152.054 33.8174C153.601 39.4311 157.088 44.3172 161.896 47.6115C163.755 48.8752 165.955 50.0875 166.591 52.2413C166.926 53.6144 166.719 55.0632 166.015 56.2889C165.312 57.4989 164.457 58.614 163.47 59.6069L163.38 59.9439C158.766 57.2143 154.377 53.7616 151.829 49.0507Z" fill="#F2F2F2"/>
<path d="M556.522 446.999C556.455 446.999 556.387 446.988 556.323 446.968C382.022 391.934 228.4 399.131 130.219 414.859C116.857 416.999 103.46 419.47 90.3996 422.205C87.0652 422.902 83.6059 423.65 80.118 424.428C75.9525 425.354 71.8424 426.308 67.9012 427.262C66.1991 427.664 64.5303 428.07 62.8946 428.478C60.4171 429.089 57.9032 429.725 55.2084 430.425C52.1972 431.2 49.1377 432.013 46.1129 432.841C46.1019 432.845 46.0906 432.848 46.0791 432.851L46.0795 432.851C42.663 433.783 39.2646 434.741 35.9781 435.698C34.1994 436.211 32.4818 436.717 30.8367 437.216C30.6529 437.267 30.49 437.316 30.3249 437.366L29.9715 437.473C29.7668 437.536 29.5646 437.597 29.3625 437.655L29.3496 437.658L29.3499 437.659L28.8149 437.825C28.177 438.018 27.5545 438.206 26.9422 438.394C10.7618 443.374 1.86689 446.916 1.77902 446.951C1.69866 446.983 1.61275 446.999 1.52619 446.998C1.43962 446.997 1.3541 446.979 1.2745 446.945C1.11375 446.877 0.986892 446.747 0.921841 446.585C0.85679 446.423 0.858869 446.242 0.927624 446.081C0.99638 445.921 1.12618 445.794 1.28847 445.729C1.37699 445.695 10.3154 442.134 26.5547 437.135C27.1692 436.947 27.7933 436.759 28.4332 436.565L28.9302 436.411C28.9472 436.405 28.9643 436.399 28.9817 436.394C29.1829 436.337 29.3837 436.276 29.5878 436.214L29.9419 436.107C30.1183 436.054 30.2921 436.001 30.4701 435.952C32.104 435.456 33.8273 434.949 35.6105 434.434C38.8983 433.476 42.2999 432.518 45.719 431.585C45.7296 431.582 45.7405 431.579 45.7512 431.576V431.575C48.7865 430.744 51.8573 429.928 54.8782 429.15C57.5771 428.45 60.0958 427.813 62.5776 427.201C64.2202 426.793 65.8922 426.386 67.5938 425.981C71.5395 425.026 75.658 424.071 79.8309 423.143C83.3243 422.364 86.7893 421.615 90.1292 420.917C103.21 418.177 116.628 415.702 130.01 413.559C228.331 397.809 382.174 390.6 556.72 445.713C556.87 445.76 556.999 445.86 557.082 445.993C557.165 446.127 557.197 446.285 557.173 446.441C557.149 446.596 557.071 446.738 556.951 446.84C556.832 446.942 556.68 446.999 556.522 446.999V446.999Z" fill="#CCCCCC"/>
<path d="M128.552 367.739C136.633 364.446 174.936 360.09 183.637 360.734C184.909 360.828 185.015 358.856 183.747 358.762C174.679 358.091 136.049 362.56 127.634 365.989C126.458 366.468 127.38 368.216 128.552 367.739Z" fill="#CCCCCC"/>
<path d="M17.6877 392.964C25.854 389.844 34.6325 388.651 43.337 389.479C44.6067 389.599 44.7537 387.63 43.4874 387.51C34.4279 386.666 25.2957 387.928 16.8061 391.196C15.6203 391.652 16.5062 393.418 17.6877 392.964Z" fill="#CCCCCC"/>
<path d="M337.706 358.913C346.32 357.414 355.165 357.924 363.549 360.403C364.772 360.763 365.294 358.858 364.074 358.499C355.345 355.937 346.14 355.427 337.18 357.009C335.929 357.229 336.459 359.132 337.706 358.913Z" fill="#CCCCCC"/>
<path d="M485.37 387.872C493.984 386.373 502.829 386.882 511.213 389.361C512.436 389.722 512.959 387.817 511.739 387.457C503.009 384.895 493.804 384.386 484.845 385.968C483.593 386.188 484.124 388.091 485.37 387.872Z" fill="#CCCCCC"/>
<path d="M531.208 256.68L540.965 248.968C540.09 242.501 537.647 236.346 533.848 231.036C533.149 242.615 520.997 249.989 516.547 260.704C515.184 264.057 514.595 267.673 514.823 271.284C515.051 274.895 516.09 278.408 517.862 281.564L518.531 290.351C523.804 287.822 528.466 284.182 532.195 279.682C535.924 275.182 538.631 269.928 540.131 264.282C540.94 261.106 541.346 257.842 541.339 254.565C536.429 255.883 531.208 256.68 531.208 256.68Z" fill="#173F26"/>
<path d="M508.174 334.248C504.283 335.14 500.884 335.659 500.884 335.659L506.905 330.9C505.542 326.917 504.801 322.907 505.686 318.763C501.114 322.419 497.406 327.035 494.823 332.283C492.241 337.531 490.848 343.283 490.743 349.129C490.639 354.976 491.826 360.773 494.219 366.11C496.612 371.447 500.154 376.192 504.591 380.008L507.584 371.718C510.136 369.149 512.077 366.04 513.261 362.62C514.446 359.201 514.845 355.56 514.428 351.965C513.671 345.838 510.557 340.041 508.174 334.248Z" fill="#173F26"/>
<path d="M552.303 316.572L561.348 309.423C562.095 305.37 562.199 301.226 561.658 297.141C555.58 307.028 541.381 307.819 532.401 315.18C529.618 317.498 527.393 320.41 525.891 323.703C524.389 326.996 523.648 330.584 523.723 334.201L520.169 342.267C526.014 342.516 531.843 341.496 537.255 339.279C542.668 337.062 547.534 333.7 551.52 329.424C555.289 325.286 558.143 320.403 559.896 315.091C555.88 316.026 552.303 316.572 552.303 316.572Z" fill="#173F26"/>
<path d="M502.822 378.379C501.095 380.604 499.265 382.745 497.331 384.803C498.049 385.02 498.748 385.231 499.434 385.441C501.128 383.605 502.743 381.703 504.279 379.735C504.536 379.406 504.793 379.071 505.05 378.728C507.851 375.049 510.376 371.169 512.605 367.118C516.908 359.33 520.103 350.981 522.098 342.313C522.137 342.161 522.17 342.016 522.203 341.865C522.737 339.483 523.179 337.074 523.521 334.658C523.594 334.171 523.66 333.678 523.726 333.191C523.891 331.855 524.029 330.518 524.141 329.182C524.547 324.312 524.56 319.417 524.181 314.545C523.532 306.212 521.79 298.001 518.999 290.121C518.801 289.562 518.604 289.002 518.386 288.449C518.268 288.12 518.142 287.791 518.017 287.462C514.659 278.793 510.05 270.66 504.338 263.321C504.127 263.051 503.916 262.788 503.705 262.525C503.204 261.899 502.697 261.281 502.183 260.669C502.098 260.562 501.99 260.477 501.866 260.42C501.742 260.364 501.606 260.338 501.47 260.344C501.334 260.351 501.202 260.39 501.084 260.457C500.966 260.525 500.866 260.62 500.792 260.734C500.628 260.917 500.537 261.152 500.535 261.397C500.532 261.641 500.619 261.878 500.779 262.064C501.194 262.557 501.609 263.058 502.005 263.564C502.499 264.163 502.974 264.775 503.435 265.394C513.619 278.802 519.999 294.7 521.906 311.419C523.05 321.722 522.428 332.145 520.067 342.24H520.061C518.651 348.323 516.63 354.248 514.029 359.925C513.508 361.057 512.965 362.178 512.401 363.288C510.937 366.177 509.322 368.987 507.562 371.706C506.085 374.003 504.505 376.227 502.822 378.379Z" fill="#3F3D56"/>
<path d="M504.055 237.763C502.004 239.562 500.064 241.483 498.247 243.517L501.356 236.352C500.189 235.903 498.938 235.714 497.69 235.797C496.443 235.879 495.228 236.232 494.131 236.831C491.567 238.331 490.032 241.248 489.742 244.201C489.552 247.18 490.194 250.153 491.596 252.79C494.012 257.631 497.938 261.556 502.783 263.975C505.157 260.32 507.384 256.475 508.332 252.225C509.295 247.906 508.768 243.06 506.004 239.602C505.44 238.904 504.785 238.285 504.055 237.763Z" fill="#173F26"/>
</g>
<defs>
<clipPath id="clip0_316_229">
<rect width="562" height="447" fill="white"/>
</clipPath>
</defs>
</svg>
