<svg width="471" height="405" viewBox="0 0 471 405" fill="none" xmlns="http://www.w3.org/2000/svg">
<g clip-path="url(#clip0_1040_573)">
<path d="M332.582 398.795C325.021 392.409 320.429 382.321 321.633 372.5C322.837 362.679 330.297 353.651 339.974 351.566C349.65 349.48 360.681 355.253 363.62 364.701C365.237 346.486 367.101 327.507 376.79 311.995C385.563 297.949 400.759 287.899 417.227 286.101C433.695 284.303 451.034 291.094 461.305 304.086C471.576 317.078 474.091 335.966 466.897 350.882C461.598 361.87 451.835 370.047 441.606 376.7C408.553 398.017 368.91 406.685 329.971 401.111" fill="#E6E6E6"/>
<path d="M445.02 291.47C431.432 302.533 418.966 314.906 407.802 328.409C390.332 349.471 376.195 373.084 365.884 398.427C365.129 400.276 368.132 401.081 368.879 399.253C375.436 383.229 383.549 367.887 393.101 353.446C407.995 330.886 426.244 310.728 447.216 293.665C448.767 292.403 446.558 290.218 445.02 291.47Z" fill="white"/>
<path d="M327.36 398.795C334.921 392.409 339.513 382.321 338.309 372.5C337.105 362.679 329.645 353.651 319.968 351.566C310.292 349.48 299.261 355.253 296.322 364.701C294.705 346.486 292.841 327.507 283.152 311.995C274.379 297.949 259.183 287.899 242.715 286.101C226.247 284.303 208.908 291.094 198.637 304.086C188.366 317.078 185.851 335.966 193.045 350.882C198.344 361.87 208.107 370.047 218.336 376.7C251.389 398.017 291.032 406.685 329.971 401.111" fill="#E6E6E6"/>
<path d="M214.922 291.47C228.511 302.533 240.977 314.906 252.14 328.409C269.61 349.471 283.747 373.084 294.059 398.427C294.813 400.276 291.81 401.081 291.063 399.253C274.192 358.065 247.258 321.762 212.726 293.665C211.175 292.403 213.384 290.218 214.922 291.47Z" fill="white"/>
<path d="M304.923 181.289C290.935 181.289 279.596 169.955 279.596 155.974C279.596 141.993 290.935 130.659 304.923 130.659C318.91 130.659 330.25 141.993 330.25 155.974C330.25 169.955 318.91 181.289 304.923 181.289Z" fill="#F2F2F2"/>
<path d="M383.013 68.7082H208.517V78.2506H360.737C369.687 78.2506 378.549 80.0126 386.818 83.4359C395.087 86.8593 402.6 91.8771 408.928 98.2027C415.257 104.528 420.277 112.038 423.702 120.303C427.127 128.567 428.89 137.426 428.89 146.371V254.784H447.983C448.827 254.784 449.637 254.449 450.234 253.853C450.83 253.256 451.166 252.447 451.166 251.603V136.829C451.166 127.883 449.403 119.025 445.978 110.76C442.553 102.495 437.533 94.9859 431.204 88.6603C424.876 82.3347 417.363 77.3169 409.094 73.8935C400.825 70.4702 391.963 68.7082 383.013 68.7082Z" fill="#F2F2F2"/>
<path d="M349.449 399.325V254.376H306.965V399.325C306.967 400.3 307.354 401.234 308.043 401.922C308.733 402.611 309.667 402.999 310.642 403H345.773C346.748 402.999 347.682 402.611 348.371 401.922C349.061 401.234 349.448 400.3 349.449 399.325Z" fill="#1F1F1F"/>
<path d="M460.153 251.518V133.652C460.132 114.888 452.665 96.8995 439.391 83.6317C426.117 70.3638 408.12 62.9007 389.347 62.8794H209.334V255.601H456.068C457.151 255.6 458.189 255.169 458.955 254.404C459.721 253.638 460.152 252.6 460.153 251.518ZM210.968 64.5127H389.347C407.686 64.5334 425.268 71.8244 438.236 84.786C451.204 97.7477 458.498 115.321 458.519 133.652V251.518C458.518 252.167 458.26 252.79 457.8 253.249C457.341 253.709 456.718 253.967 456.068 253.968H210.968V64.5127Z" fill="#1F1F1F"/>
<path d="M304.923 169.04C308.822 169.035 312.56 167.485 315.317 164.729C318.074 161.974 319.625 158.238 319.629 154.34V48.997C319.63 48.3474 319.888 47.7247 320.348 47.2654C320.807 46.8062 321.43 46.5478 322.08 46.5471H379.27C380.353 46.5459 381.391 46.1153 382.157 45.3498C382.923 44.5844 383.354 43.5466 383.355 42.464V4.08308C383.354 3.00056 382.923 1.96274 382.157 1.19729C381.391 0.431832 380.353 0.00125354 379.27 0H294.302C293.219 0.00123844 292.181 0.431816 291.415 1.19727C290.649 1.96273 290.218 3.00056 290.217 4.08308V154.34C290.221 158.238 291.772 161.974 294.529 164.729C297.286 167.485 301.024 169.035 304.923 169.04Z" fill="#102619"/>
<path d="M202.798 61.2462C190.473 61.2204 178.642 66.0894 169.909 74.7821C161.175 83.4749 156.255 95.2793 156.229 107.598V241.776H64.7247C61.0488 241.769 57.5205 243.221 54.9158 245.813C52.3111 248.406 50.8434 251.927 50.8357 255.601H249.367V107.598C249.341 95.2793 244.42 83.4749 235.687 74.7821C226.953 66.0894 215.123 61.2204 202.798 61.2462Z" fill="#1F1F1F"/>
<path d="M213.973 137.655L204.33 177.47L15.6999 131.828L25.3428 92.013C25.4593 91.5262 25.6969 91.0767 26.0337 90.7062C26.3704 90.3357 26.7953 90.0563 27.269 89.8938C27.6187 89.7709 27.9885 89.7152 28.3589 89.7298L137.395 33.3001C138.034 32.974 138.769 32.8869 139.466 33.0545C140.164 33.2221 140.778 33.6334 141.199 34.2141L193.749 107.459L213.559 135.08C213.595 135.128 213.62 135.184 213.633 135.243C213.645 135.302 213.645 135.362 213.632 135.421C214.035 136.092 214.158 136.895 213.973 137.655Z" fill="white"/>
<path d="M213.632 135.421C213.623 135.473 213.603 135.522 213.575 135.567C213.546 135.611 213.509 135.649 213.466 135.679C213.415 135.714 213.357 135.738 213.296 135.751C213.235 135.763 213.173 135.762 213.112 135.749C213.013 135.723 212.927 135.663 212.868 135.58L212.8 135.486L211.768 134.044L193.035 107.941L140.501 34.7127C140.202 34.2977 139.763 34.0039 139.265 33.8846C138.767 33.7653 138.243 33.8284 137.787 34.0625L29.5959 90.0551L28.625 90.5588C28.5858 90.5752 28.5456 90.5893 28.5047 90.601C28.4315 90.5877 28.3573 90.5805 28.2829 90.5797C28.1813 90.5457 28.0966 90.4742 28.0461 90.3799C28.0198 90.3301 28.0035 90.2757 27.9982 90.2197C27.993 90.1637 27.9988 90.1072 28.0154 90.0534C28.032 89.9997 28.0591 89.9497 28.095 89.9064C28.131 89.8631 28.1751 89.8273 28.2249 89.8011L28.3589 89.7299L137.395 33.3001C138.034 32.974 138.769 32.8869 139.466 33.0545C140.164 33.2221 140.778 33.6334 141.199 34.2141L193.749 107.459L213.559 135.08C213.595 135.128 213.62 135.184 213.633 135.243C213.645 135.302 213.645 135.362 213.632 135.421Z" fill="#1F1F1F"/>
<path d="M156.98 139.481L152.782 139.947L121.619 143.397L100.961 145.683L99.7403 145.819L73.9622 125.693L72.9746 124.923L66.886 120.17L45.2244 103.261L45.0944 102.073L37.3897 32.5674C37.2847 31.6103 37.5636 30.6507 38.1654 29.8988C38.7671 29.147 39.6426 28.6643 40.5998 28.5566L143.424 17.1715C144.382 17.067 145.341 17.346 146.094 17.9474C146.846 18.5488 147.329 19.4235 147.437 20.3802L152.87 69.4078L155.884 96.5895L158.58 120.907L159.83 132.2L160.195 135.471C160.299 136.429 160.019 137.388 159.416 138.14C158.814 138.892 157.938 139.374 156.98 139.481Z" fill="#E6E6E6"/>
<path d="M128.724 78.5566L84.1842 83.4874L68.3888 85.2355C67.6914 85.3127 66.9856 85.2519 66.3117 85.0565C65.6379 84.861 65.0092 84.5348 64.4614 84.0965C63.9137 83.6582 63.4577 83.1164 63.1194 82.502C62.7812 81.8875 62.5674 81.2125 62.4901 80.5155C62.4129 79.8184 62.4738 79.113 62.6693 78.4394C62.8648 77.7659 63.1911 77.1375 63.6296 76.59C64.0681 76.0425 64.6102 75.5867 65.225 75.2486C65.8397 74.9106 66.515 74.6968 67.2124 74.6196L86.8587 72.4448L127.545 67.9355C128.954 67.78 130.366 68.1899 131.473 69.0753C132.579 69.9606 133.289 71.2489 133.445 72.6569C133.601 74.0649 133.192 75.4773 132.307 76.5836C131.421 77.6899 130.133 78.3996 128.724 78.5566Z" fill="white"/>
<path d="M131.26 98.2501C131.145 98.2707 131.03 98.2912 130.913 98.3025L79.2095 104.028L70.5769 104.986C69.1679 105.141 67.7547 104.731 66.6482 103.846C65.5417 102.96 64.8325 101.671 64.6766 100.263C64.5208 98.8545 64.931 97.442 65.8171 96.336C66.7032 95.23 67.9926 94.5212 69.4016 94.3654L81.884 92.9851L122.841 88.4489L129.733 87.6855C131.111 87.5318 132.495 87.9199 133.593 88.7678C134.69 89.6157 135.414 90.8568 135.613 92.2288C135.811 93.6008 135.468 94.9962 134.656 96.1199C133.843 97.2435 132.626 98.0075 131.26 98.2501Z" fill="white"/>
<path d="M137.112 115.713C136.688 116.416 136.108 117.012 135.417 117.454C134.725 117.897 133.941 118.174 133.125 118.265L111.933 120.611L74.1898 124.79L74.1815 124.788L72.9746 124.923L66.8861 120.17C66.8484 119.809 66.8481 119.445 66.8852 119.084C67.0136 117.871 67.5521 116.739 68.4119 115.874C69.2716 115.009 70.4009 114.464 71.613 114.328L76.8559 113.746L97.6543 111.445L112.619 109.786L131.95 107.645C132.94 107.535 133.942 107.705 134.841 108.134C135.74 108.564 136.502 109.236 137.039 110.075C137.576 110.915 137.867 111.887 137.88 112.883C137.893 113.88 137.627 114.86 137.112 115.713Z" fill="white"/>
<path d="M107.346 54.4843L96.2642 55.7111L91.3694 56.2544L83.9754 57.0723C82.5664 57.2281 81.1533 56.8181 80.0468 55.9324C78.9403 55.0467 78.2311 53.758 78.0752 52.3497C77.9194 50.9413 78.3296 49.5288 79.2157 48.4229C80.1018 47.3169 81.3911 46.608 82.8001 46.4522L106.166 43.8673C107.574 43.7108 108.987 44.12 110.094 45.0049C111.201 45.8898 111.91 47.1779 112.067 48.5857C112.224 49.9936 111.814 51.406 110.929 52.5122C110.044 53.6184 108.755 54.3278 107.346 54.4843Z" fill="white"/>
<path d="M197.964 84.0558L184.453 139.842L161.903 144.128L141.043 148.097L118.662 152.354L111.511 153.714C111.093 153.793 110.662 153.782 110.248 153.682C109.834 153.582 109.446 153.395 109.11 153.133L103.373 148.654L99.7402 145.819L73.9621 125.693L90.3527 58.0176C90.5146 57.3443 90.8676 56.732 91.3692 56.2544C91.8092 55.8318 92.3486 55.5267 92.9375 55.3673C93.5265 55.2079 94.1461 55.1992 94.7393 55.3421L195.287 79.6713C196.224 79.8985 197.031 80.4878 197.533 81.3099C198.035 82.132 198.19 83.1196 197.964 84.0558Z" fill="#BCD2C5"/>
<path d="M166.983 128.436C166.648 129.812 165.781 130.999 164.572 131.737C163.362 132.474 161.91 132.702 160.532 132.37L101.533 118.094C100.157 117.759 98.9693 116.892 98.2315 115.684C97.4936 114.475 97.2653 113.023 97.5967 111.646C97.6117 111.578 97.631 111.511 97.6543 111.445C98.031 110.118 98.9071 108.988 100.099 108.292C101.291 107.596 102.706 107.388 104.047 107.712L163.047 121.988C164.423 122.322 165.611 123.189 166.349 124.398C167.087 125.607 167.315 127.059 166.983 128.436Z" fill="white"/>
<path d="M161.903 144.128L141.043 148.097L96.8561 137.405C95.4786 137.072 94.2901 136.206 93.5519 134.996C92.8137 133.787 92.5863 132.334 92.9198 130.958C93.2532 129.581 94.1202 128.393 95.3299 127.655C96.5397 126.917 97.9932 126.69 99.3706 127.023L158.37 141.299C159.603 141.595 160.689 142.322 161.431 143.35C161.61 143.595 161.768 143.856 161.903 144.128Z" fill="white"/>
<path d="M118.663 152.354L111.511 153.714C111.093 153.793 110.662 153.782 110.248 153.682C109.834 153.582 109.446 153.394 109.11 153.133L103.373 148.654L118.663 152.354Z" fill="white"/>
<path d="M155.095 98.522C154.76 99.8981 153.893 101.085 152.684 101.823C151.474 102.561 150.021 102.788 148.644 102.456L125.792 96.9271C124.416 96.592 123.229 95.7251 122.491 94.5164C121.753 93.3077 121.525 91.8559 121.856 90.4793C122.034 89.7395 122.37 89.047 122.84 88.449C123.473 87.6407 124.324 87.0313 125.294 86.6936C126.263 86.356 127.309 86.3043 128.307 86.5448L151.159 92.0742C152.536 92.4076 153.724 93.2742 154.463 94.4834C155.201 95.6925 155.428 97.1452 155.095 98.522Z" fill="white"/>
<path d="M141.045 148.097L118.661 152.354L111.512 153.715C111.093 153.793 110.663 153.782 110.249 153.682C109.835 153.582 109.448 153.395 109.111 153.134L103.37 148.655L105.385 149.142L109.638 152.458C109.878 152.645 110.155 152.778 110.451 152.849C110.746 152.921 111.053 152.929 111.352 152.873L116.646 151.867L139.03 147.609L141.045 148.097ZM74.1834 124.791L73.9655 125.691L72.9727 124.92L74.1834 124.791ZM141.045 148.097L118.661 152.354L111.512 153.715C111.093 153.793 110.663 153.782 110.249 153.682C109.835 153.582 109.448 153.395 109.111 153.134L103.37 148.655L105.385 149.142L109.638 152.458C109.878 152.645 110.155 152.778 110.451 152.849C110.746 152.921 111.053 152.929 111.352 152.873L116.646 151.867L139.03 147.609L141.045 148.097ZM141.045 148.097L118.661 152.354L111.512 153.715C111.093 153.793 110.663 153.782 110.249 153.682C109.835 153.582 109.448 153.395 109.111 153.134L103.37 148.655L105.385 149.142L109.638 152.458C109.878 152.645 110.155 152.778 110.451 152.849C110.746 152.921 111.053 152.929 111.352 152.873L116.646 151.867L139.03 147.609L141.045 148.097ZM213.973 137.655L188.714 241.945C188.527 242.716 188.041 243.381 187.364 243.794C186.687 244.207 185.873 244.334 185.102 244.149L2.28897 199.914C1.51791 199.727 0.852722 199.242 0.439392 198.564C0.0260773 197.887 -0.101608 197.074 0.0843964 196.303L25.3428 92.0129C25.4593 91.5261 25.6969 91.0766 26.0337 90.7062C26.3704 90.3357 26.7953 90.0562 27.269 89.8938C27.6187 89.7709 27.9885 89.7152 28.3589 89.7298C28.7907 89.7423 29.2139 89.8536 29.5959 90.0551C29.7724 90.1388 29.9388 90.2421 30.0921 90.363L45.0956 102.073L66.8851 119.086L74.1849 124.785L74.1834 124.791L74.1897 124.793L100.959 145.68L105.385 149.142L109.638 152.458C109.878 152.645 110.155 152.778 110.451 152.849C110.746 152.921 111.053 152.929 111.352 152.873L116.646 151.867L139.03 147.609L161.434 143.35L210.504 134.016C210.922 133.934 211.354 133.943 211.768 134.044C212.326 134.18 212.833 134.474 213.229 134.89C213.381 135.053 213.516 135.231 213.632 135.421C214.035 136.092 214.158 136.895 213.973 137.655ZM141.045 148.097L118.661 152.354L111.512 153.715C111.093 153.793 110.663 153.782 110.249 153.682C109.835 153.582 109.448 153.395 109.111 153.134L103.37 148.655L105.385 149.142L109.638 152.458C109.878 152.645 110.155 152.778 110.451 152.849C110.746 152.921 111.053 152.929 111.352 152.873L116.646 151.867L139.03 147.609L141.045 148.097ZM141.045 148.097L118.661 152.354L111.512 153.715C111.093 153.793 110.663 153.782 110.249 153.682C109.835 153.582 109.448 153.395 109.111 153.134L103.37 148.655L105.385 149.142L109.638 152.458C109.878 152.645 110.155 152.778 110.451 152.849C110.746 152.921 111.053 152.929 111.352 152.873L116.646 151.867L139.03 147.609L141.045 148.097ZM141.045 148.097L118.661 152.354L111.512 153.715C111.093 153.793 110.663 153.782 110.249 153.682C109.835 153.582 109.448 153.395 109.111 153.134L103.37 148.655L105.385 149.142L109.638 152.458C109.878 152.645 110.155 152.778 110.451 152.849C110.746 152.921 111.053 152.929 111.352 152.873L116.646 151.867L139.03 147.609L141.045 148.097Z" fill="white"/>
<path d="M141.045 148.097L118.661 152.354L111.512 153.715C111.093 153.793 110.663 153.782 110.249 153.682C109.835 153.582 109.448 153.395 109.111 153.134L103.37 148.655L105.385 149.142L109.638 152.458C109.878 152.645 110.155 152.778 110.451 152.849C110.746 152.921 111.053 152.929 111.352 152.873L116.646 151.867L139.03 147.609L141.045 148.097ZM74.1834 124.791L73.9655 125.691L72.9727 124.92L74.1834 124.791ZM141.045 148.097L118.661 152.354L111.512 153.715C111.093 153.793 110.663 153.782 110.249 153.682C109.835 153.582 109.448 153.395 109.111 153.134L103.37 148.655L105.385 149.142L109.638 152.458C109.878 152.645 110.155 152.778 110.451 152.849C110.746 152.921 111.053 152.929 111.352 152.873L116.646 151.867L139.03 147.609L141.045 148.097ZM141.045 148.097L118.661 152.354L111.512 153.715C111.093 153.793 110.663 153.782 110.249 153.682C109.835 153.582 109.448 153.395 109.111 153.134L103.37 148.655L105.385 149.142L109.638 152.458C109.878 152.645 110.155 152.778 110.451 152.849C110.746 152.921 111.053 152.929 111.352 152.873L116.646 151.867L139.03 147.609L141.045 148.097ZM212.8 135.486L212.689 135.569C212.67 135.538 212.638 135.511 212.613 135.479C212.366 135.222 212.058 135.03 211.718 134.92C211.378 134.811 211.016 134.787 210.665 134.852L161.901 144.124L141.045 148.097L118.661 152.354L111.512 153.715C111.093 153.793 110.663 153.782 110.249 153.682C109.835 153.582 109.448 153.395 109.111 153.134L103.37 148.655L105.385 149.142L109.638 152.458C109.878 152.645 110.155 152.778 110.451 152.849C110.746 152.921 111.053 152.929 111.352 152.873L116.646 151.867L139.03 147.609L161.434 143.35L210.504 134.016C210.922 133.934 211.354 133.943 211.768 134.044L212.8 135.486ZM213.973 137.655L188.714 241.945C188.527 242.716 188.041 243.381 187.364 243.794C186.687 244.207 185.873 244.334 185.102 244.149L2.28897 199.914C1.51791 199.727 0.852722 199.242 0.439392 198.564C0.0260773 197.887 -0.101608 197.074 0.0843964 196.303L25.3428 92.0129C25.4593 91.5261 25.6969 91.0766 26.0337 90.7062C26.3704 90.3357 26.7953 90.0562 27.269 89.8938C27.6187 89.7709 27.9885 89.7152 28.3589 89.7298C28.7907 89.7423 29.2139 89.8536 29.5959 90.0551C29.7724 90.1388 29.9388 90.2421 30.0921 90.363L45.0956 102.073L66.8851 119.086L74.1849 124.785L74.1834 124.791L74.1897 124.793L100.959 145.68L105.385 149.142L109.638 152.458C109.878 152.645 110.155 152.778 110.451 152.849C110.746 152.921 111.053 152.929 111.352 152.873L116.646 151.867L139.03 147.609L161.434 143.35L210.504 134.016C210.922 133.934 211.354 133.943 211.768 134.044C212.326 134.18 212.833 134.474 213.229 134.89C213.381 135.053 213.516 135.231 213.632 135.421C214.035 136.092 214.158 136.895 213.973 137.655ZM213.14 137.453C213.214 137.146 213.219 136.826 213.154 136.516C213.089 136.207 212.955 135.916 212.763 135.665C212.745 135.628 212.72 135.595 212.689 135.569C212.67 135.538 212.638 135.511 212.613 135.479C212.366 135.222 212.058 135.03 211.718 134.92C211.378 134.811 211.016 134.787 210.665 134.852L161.901 144.124L141.045 148.097L118.661 152.354L111.512 153.715C111.093 153.793 110.663 153.782 110.249 153.682C109.835 153.582 109.448 153.395 109.111 153.134L103.37 148.655L99.7393 145.819L73.9655 125.691L72.9727 124.92L66.8888 120.169L45.2234 103.257L29.5605 91.0313C29.3224 90.8457 29.0475 90.7129 28.754 90.6418C28.6721 90.6217 28.5887 90.6081 28.5047 90.6009C28.4315 90.5876 28.3573 90.5805 28.2829 90.5797C28.0326 90.5773 27.7837 90.6179 27.5471 90.6997C27.2095 90.8172 26.9066 91.0172 26.666 91.2815C26.4255 91.5458 26.2548 91.866 26.1696 92.213L0.911179 196.503C0.844711 196.776 0.832809 197.06 0.876175 197.338C0.919525 197.616 1.01729 197.883 1.16385 198.123C1.31041 198.363 1.50291 198.572 1.73032 198.737C1.95772 198.903 2.21559 199.022 2.48912 199.088L185.302 243.322C185.853 243.455 186.435 243.363 186.919 243.067C187.402 242.771 187.749 242.295 187.881 241.743L213.14 137.453ZM141.045 148.097L118.661 152.354L111.512 153.715C111.093 153.793 110.663 153.782 110.249 153.682C109.835 153.582 109.448 153.395 109.111 153.134L103.37 148.655L105.385 149.142L109.638 152.458C109.878 152.645 110.155 152.778 110.451 152.849C110.746 152.921 111.053 152.929 111.352 152.873L116.646 151.867L139.03 147.609L141.045 148.097ZM141.045 148.097L118.661 152.354L111.512 153.715C111.093 153.793 110.663 153.782 110.249 153.682C109.835 153.582 109.448 153.395 109.111 153.134L103.37 148.655L105.385 149.142L109.638 152.458C109.878 152.645 110.155 152.778 110.451 152.849C110.746 152.921 111.053 152.929 111.352 152.873L116.646 151.867L139.03 147.609L141.045 148.097ZM141.045 148.097L118.661 152.354L111.512 153.715C111.093 153.793 110.663 153.782 110.249 153.682C109.835 153.582 109.448 153.395 109.111 153.134L103.37 148.655L105.385 149.142L109.638 152.458C109.878 152.645 110.155 152.778 110.451 152.849C110.746 152.921 111.053 152.929 111.352 152.873L116.646 151.867L139.03 147.609L141.045 148.097Z" fill="#1F1F1F"/>
<path d="M49.9354 179.425C50.3473 177.716 50.0641 175.913 49.1481 174.413C48.232 172.912 46.7579 171.836 45.0491 171.421L21.9758 165.838C20.2684 165.431 18.4693 165.717 16.9726 166.634C15.476 167.55 14.4037 169.022 13.9907 170.727C13.5778 172.433 13.8577 174.232 14.7694 175.731C15.681 177.23 17.15 178.307 18.8544 178.726L41.9278 184.309C43.6375 184.72 45.4407 184.437 46.942 183.522C48.4432 182.606 49.5197 181.133 49.9354 179.425Z" fill="#102619"/>
<path d="M304.923 160.057C301.764 160.057 299.204 157.497 299.204 154.34C299.204 151.183 301.764 148.624 304.923 148.624C308.081 148.624 310.642 151.183 310.642 154.34C310.642 157.497 308.081 160.057 304.923 160.057Z" fill="white"/>
</g>
<path d="M470.245 405H0.754971C0.554537 404.999 0.362525 404.894 0.221001 404.706C0.0794778 404.519 0 404.265 0 404C0 403.735 0.0794778 403.481 0.221001 403.294C0.362525 403.106 0.554537 403.001 0.754971 403H470.245C470.445 403.001 470.637 403.106 470.779 403.294C470.921 403.481 471 403.735 471 404C471 404.265 470.921 404.519 470.779 404.706C470.637 404.894 470.445 404.999 470.245 405Z" fill="#102619"/>
<defs>
<clipPath id="clip0_1040_573">
<rect width="471" height="403" fill="white" transform="matrix(-1 0 0 1 471 0)"/>
</clipPath>
</defs>
</svg>
