<svg width="175" height="192" viewBox="0 0 175 192" fill="none" xmlns="http://www.w3.org/2000/svg">
<path d="M41.8597 47.5726C38.6418 30.3504 43.708 10.7571 57.7892 0.332458C56.9912 19.3685 62.9522 38.0733 74.6176 53.1375C79.1375 58.9308 84.768 64.9037 84.593 72.2495C84.4843 76.8203 82.0124 81.0784 78.7548 84.2864C75.497 87.4944 71.4841 89.8072 67.5192 92.0841L66.902 93.0441C55.2792 79.9341 45.0776 64.7949 41.8597 47.5726Z" fill="#BCD2C5"/>
<path d="M58.0458 0.595762C52.1298 13.836 50.536 28.6037 53.4909 42.8013C54.0728 45.869 55.1346 48.8259 56.6372 51.563C58.1871 54.1819 60.41 56.3381 63.075 57.8074C65.5323 59.2273 68.2104 60.3951 70.2797 62.3876C71.3239 63.4233 72.1373 64.668 72.6667 66.04C73.196 67.4121 73.4293 68.8806 73.3514 70.3491C73.2523 74.0134 71.8425 77.4236 70.3479 80.7105C68.6884 84.3601 66.907 88.1245 67.0146 92.2275C67.0276 92.7247 66.2555 92.7159 66.2425 92.2195C66.0552 85.0808 71.2162 79.3477 72.3662 72.4979C72.9028 69.3016 72.4794 65.9243 70.2323 63.4467C68.2673 61.2802 65.5068 60.0736 63.0062 58.6574C60.3854 57.2622 58.1461 55.2464 56.4839 52.7863C54.8468 50.1345 53.6729 47.2235 53.0124 44.1779C51.4162 37.345 50.9042 30.3036 51.4952 23.3117C52.1255 15.3281 54.1169 7.51114 57.3831 0.199045C57.5855 -0.253444 58.2468 0.146226 58.0458 0.595762Z" fill="white"/>
<path d="M52.2705 38.2858C49.8211 38.4582 47.3902 37.7543 45.412 36.2998C43.4337 34.8454 42.0368 32.7351 41.4708 30.3458C41.3579 29.862 42.1045 29.6639 42.2175 30.1483C42.7405 32.3742 44.0418 34.3398 45.8868 35.6905C47.7317 37.0411 49.9987 37.6877 52.2785 37.5136C52.774 37.4764 52.7631 38.2488 52.2705 38.2858Z" fill="white"/>
<path d="M61.7343 57.2516C65.0593 53.4915 66.845 48.6164 66.7352 43.5983C66.724 43.1011 67.4961 43.1098 67.5074 43.6063C67.6118 48.8285 65.7433 53.8981 62.2746 57.8033C61.9437 58.1753 61.4052 57.6215 61.7343 57.2516Z" fill="white"/>
<path d="M53.0303 15.8076C53.9919 15.9383 54.9709 15.8282 55.8795 15.4871C56.788 15.146 57.5976 14.5846 58.2355 13.8533C58.5615 13.4773 59.0997 14.0315 58.7758 14.405C58.0672 15.2097 57.1723 15.8286 56.1694 16.2077C55.1664 16.5868 54.0859 16.7145 53.0222 16.5797C52.9208 16.5754 52.825 16.5327 52.754 16.4602C52.683 16.3878 52.6423 16.291 52.6401 16.1896C52.6417 16.0874 52.6836 15.9899 52.7566 15.9184C52.8297 15.8468 52.9281 15.807 53.0303 15.8076Z" fill="white"/>
<path d="M115.374 14.5779C115.177 14.8185 114.98 15.059 114.785 15.3059C112.155 18.5539 109.793 22.0103 107.722 25.6408C107.558 25.919 107.395 26.2033 107.239 26.4856C102.344 35.2856 99.1254 44.9178 97.7468 54.8927C97.2018 58.8625 96.9597 62.8679 97.0225 66.8744C97.1095 72.4075 97.644 78.3999 95.948 83.4888C95.777 84.0217 95.5731 84.5435 95.3376 85.0512L68.1212 93.7226C68.0494 93.7113 67.9794 93.7062 67.9073 93.695L66.8365 94.0909C66.8188 93.8845 66.8049 93.6701 66.7872 93.4636C66.7765 93.3439 66.7718 93.2223 66.7611 93.1026C66.7558 93.0222 66.7509 92.9417 66.7415 92.8694C66.7397 92.8427 66.7381 92.8158 66.7382 92.7953C66.7289 92.723 66.7279 92.6549 66.7206 92.5889C66.6396 91.3903 66.5647 90.1898 66.5026 88.9853C66.5006 88.9791 66.5006 88.9791 66.5047 88.971C66.0375 79.797 66.3322 70.5035 68.028 61.5502C68.0791 61.2808 68.1279 61.0053 68.1915 60.732C68.9783 56.7005 70.0933 52.74 71.5253 48.8902C72.3162 46.7846 73.2132 44.7205 74.2129 42.7056C76.8058 37.5046 80.2007 32.7437 84.273 28.5976C92.3925 20.3336 103.065 14.7583 114.5 14.5828C114.792 14.5784 115.079 14.5759 115.374 14.5779Z" fill="#BCD2C5"/>
<path d="M115.422 14.9428C102.727 21.9525 92.5636 32.7842 86.375 45.8992C84.9926 48.699 84.0602 51.6991 83.612 54.7892C83.2727 57.8134 83.7494 60.8733 84.9927 63.651C86.0998 66.2642 87.535 68.809 87.9876 71.6458C88.1978 73.1014 88.0978 74.5849 87.6944 75.9991C87.291 77.4134 86.5932 78.7264 85.6468 79.852C83.3615 82.7181 80.1827 84.5921 77.0104 86.3167C73.4881 88.2315 69.7993 90.1646 67.4149 93.5055C67.126 93.9103 66.5148 93.4384 66.8033 93.0341C70.9517 87.2216 78.5242 85.7513 83.5665 80.9745C85.9193 78.7455 87.6147 75.7941 87.3121 72.4629C87.0476 69.55 85.5699 66.9245 84.426 64.2883C83.1735 61.5964 82.5991 58.6387 82.7531 55.6736C83.0425 52.5707 83.8579 49.5397 85.1642 46.7103C88.0035 40.2935 91.8341 34.3631 96.5156 29.1363C101.826 23.1413 108.122 18.0989 115.132 14.2271C115.566 13.9876 115.854 14.7049 115.422 14.9428Z" fill="white"/>
<path d="M88.1192 41.5589C86.0598 40.2219 84.5426 38.1963 83.8387 35.844C83.1349 33.4916 83.2901 30.9657 84.2767 28.7172C84.4779 28.263 85.1932 28.5542 84.9918 29.0091C84.0692 31.1012 83.9248 33.4541 84.5848 35.6433C85.2447 37.8325 86.6654 39.7137 88.5905 40.9473C89.0086 41.2159 88.5348 41.826 88.1192 41.5589Z" fill="white"/>
<path d="M84.2569 62.3999C89.1756 61.3996 93.5365 58.5822 96.4701 54.5094C96.7605 54.1057 97.3718 54.5775 97.0818 54.9808C94.0211 59.2133 89.4769 62.1361 84.3561 63.1657C83.868 63.2635 83.7714 62.4972 84.2569 62.3999Z" fill="white"/>
<path d="M102.259 24.0688C102.948 24.7522 103.796 25.2538 104.727 25.5284C105.658 25.8031 106.642 25.8422 107.592 25.6424C108.079 25.5384 108.175 26.3049 107.691 26.4081C106.641 26.624 105.554 26.5795 104.525 26.2783C103.496 25.9771 102.556 25.4285 101.788 24.6805C101.709 24.616 101.659 24.5242 101.646 24.4236C101.633 24.323 101.658 24.2213 101.718 24.139C101.78 24.0583 101.873 24.0057 101.974 23.9925C102.075 23.9794 102.178 24.0068 102.259 24.0688Z" fill="white"/>
<path d="M173.594 93.4069C173.584 91.9494 173.059 90.5422 172.111 89.435C171.164 88.3278 169.854 87.5919 168.416 87.3581L79.904 72.8234C79.0553 72.6829 78.1866 72.7215 77.3536 72.9368L56.6104 78.3003L44.7085 81.3814L22.7442 87.0593C21.4183 87.4036 20.2442 88.1783 19.4059 89.2618C18.5677 90.3453 18.1127 91.6763 18.1123 93.0462V185.794C18.1189 187.208 18.6075 188.577 19.4974 189.676C20.3873 190.775 21.6253 191.537 23.007 191.837L113.162 190.817C113.586 190.907 114.017 190.952 114.45 190.95C115.081 190.952 115.708 190.856 116.31 190.667L169.874 192C171.138 191.606 172.241 190.814 173.02 189.743C173.798 188.672 174.211 187.378 174.197 186.054L173.594 93.4069Z" fill="white"/>
<path d="M173.594 93.4069C173.584 91.9494 173.059 90.5422 172.111 89.435C171.164 88.3278 169.854 87.5919 168.416 87.3581L79.904 72.8234C79.0553 72.6829 78.1866 72.7215 77.3536 72.9368L56.6104 78.3003L44.7085 81.3814L22.7442 87.0593C21.4183 87.4036 20.2442 88.1783 19.4059 89.2618C18.5677 90.3453 18.1127 91.6763 18.1123 93.0462V185.794C18.1189 187.208 18.6075 188.577 19.4974 189.676C20.3873 190.775 21.6253 191.537 23.007 191.837L67.2554 191.914H89.7394H101.232H108.639H110.268C110.748 191.914 113.152 191.916 113.585 191.914C114.215 191.915 114.376 191.914 115.064 191.914L169.874 192C171.138 191.606 172.241 190.814 173.02 189.743C173.798 188.672 174.211 187.378 174.197 186.054L173.594 93.4069ZM169.41 190.526L115.482 190.328C114.239 190.328 113.709 190.328 112.549 190.328H110.268H107.661H101.232H90.254H67.5812H46.4007H23.3265C22.2905 190.102 21.3625 189.53 20.6956 188.705C20.0287 187.881 19.6627 186.854 19.658 185.794V93.0462C19.6587 92.0968 19.9505 91.1703 20.494 90.3918C21.0376 89.6133 21.8068 89.0203 22.6979 88.6925C22.8394 88.6394 22.9839 88.5947 23.1307 88.5585L46.3676 82.551L60.1088 78.9959L77.74 74.4361C78.1181 74.3352 78.508 74.2849 78.8993 74.2867C79.1513 74.2866 79.4029 74.3072 79.6515 74.3485L168.163 88.8832C168.875 89 169.551 89.2811 170.136 89.7041C170.72 90.1271 171.199 90.6804 171.533 91.3202C171.867 91.9689 172.044 92.6874 172.048 93.4172L172.651 186.064C172.662 187.058 172.353 188.028 171.769 188.832C171.185 189.636 170.358 190.23 169.41 190.526Z" fill="#CCCCCC"/>
<path d="M171.533 91.3202C171.473 91.3597 171.406 91.3893 171.337 91.4078L145.302 98.4459L137.198 100.636L114.146 106.865C114.08 106.881 114.013 106.89 113.945 106.891C113.899 106.89 113.852 106.886 113.806 106.88L20.8584 89.9342L20.5493 89.8775C20.3479 89.8397 20.1697 89.7237 20.0537 89.5549C19.9376 89.3861 19.8931 89.1781 19.9298 88.9766C19.9666 88.775 20.0817 88.5963 20.2499 88.4793C20.4181 88.3623 20.6258 88.3167 20.8275 88.3525L22.6978 88.6925L113.914 105.324L133.782 99.9555L144.895 96.9516L170.528 90.0218L170.935 89.9136C171.111 89.8672 171.298 89.8841 171.462 89.9613C171.627 90.0385 171.76 90.1712 171.837 90.3361C171.857 90.3755 171.872 90.4169 171.883 90.4597C171.926 90.6218 171.914 90.7932 171.851 90.9483C171.788 91.1034 171.676 91.2339 171.533 91.3202Z" fill="#CCCCCC"/>
<path d="M114.718 191.131C114.294 191.131 113.857 189.275 113.852 191.457L113.172 108.732C113.168 105.698 113.512 105.349 113.938 105.345H113.945C114.369 105.345 114.714 105.686 114.718 108.717L115.482 191.783C115.486 189.602 115.152 191.127 114.725 191.131H114.718Z" fill="#CCCCCC"/>
<path d="M145.786 191.369L137.446 191.457L134.023 99.6196L46.6868 82.3529C46.6013 82.3378 46.5168 82.3173 46.4339 82.2913C45.763 82.1015 45.1769 81.6909 44.7715 81.1269L56.6972 78.0593L60.2026 78.7518L143.073 95.1311C143.509 95.2166 143.921 95.3947 144.281 95.6532C144.641 95.9118 144.941 96.2446 145.159 96.6289C145.417 97.0752 145.781 190.835 145.786 191.369Z" fill="#2D96D0"/>
<path d="M23.3384 110.334C36.2278 110.334 46.6768 99.8854 46.6768 86.996C46.6768 74.1065 36.2278 63.6576 23.3384 63.6576C10.4489 63.6576 0 74.1065 0 86.996C0 99.8854 10.4489 110.334 23.3384 110.334Z" fill="#102619"/>
<path d="M20.1545 99.1425C19.7515 99.1425 19.354 99.0487 18.9936 98.8684C18.6331 98.6881 18.3196 98.4263 18.0779 98.1039L11.7108 89.6143C11.2977 89.0635 11.1204 88.3711 11.2178 87.6896C11.3152 87.008 11.6793 86.393 12.2301 85.9799C12.781 85.5669 13.4733 85.3895 14.1549 85.4869C14.8365 85.5843 15.4515 85.9484 15.8645 86.4992L20.0301 92.0529L30.7288 76.0051C30.9174 75.7202 31.1603 75.4754 31.4437 75.2847C31.7271 75.0939 32.0454 74.961 32.3802 74.8935C32.7151 74.826 33.06 74.8252 33.3952 74.8913C33.7303 74.9573 34.0492 75.0888 34.3334 75.2783C34.6177 75.4678 34.8617 75.7115 35.0516 75.9955C35.2414 76.2795 35.3734 76.5982 35.4398 76.9333C35.5063 77.2683 35.506 77.6132 35.4389 77.9482C35.3718 78.2831 35.2393 78.6016 35.0489 78.8852L22.3148 97.9864C22.0845 98.3319 21.7747 98.6171 21.4113 98.8181C21.048 99.0191 20.6418 99.1301 20.2268 99.1417C20.2027 99.1421 20.1786 99.1425 20.1545 99.1425Z" fill="white"/>
<path d="M44.9592 146.643C44.8882 146.658 44.8157 146.664 44.7431 146.663L24.0344 146.314C23.7755 146.31 23.5291 146.202 23.3492 146.016C23.1694 145.83 23.0708 145.58 23.0751 145.321C23.0794 145.062 23.1862 144.815 23.3722 144.635C23.5581 144.455 23.8079 144.356 24.0668 144.359L44.7755 144.708C45.016 144.712 45.2465 144.805 45.423 144.968C45.5995 145.131 45.7096 145.354 45.7323 145.593C45.7551 145.833 45.6888 146.072 45.5462 146.266C45.4036 146.459 45.1946 146.594 44.9592 146.643Z" fill="#E6E6E6"/>
<path d="M52.1282 157.722C52.0571 157.737 51.9846 157.743 51.912 157.742L31.2033 157.394C30.9444 157.389 30.698 157.281 30.5182 157.095C30.3383 156.909 30.2397 156.659 30.244 156.4C30.2483 156.141 30.3552 155.894 30.5411 155.714C30.727 155.534 30.9769 155.435 31.2358 155.438L51.9445 155.787C52.1849 155.791 52.4154 155.884 52.5919 156.047C52.7684 156.21 52.8785 156.433 52.9013 156.672C52.924 156.912 52.8577 157.151 52.7151 157.345C52.5725 157.538 52.3635 157.673 52.1282 157.722Z" fill="#E6E6E6"/>
</svg>
