<svg width="144" height="209" viewBox="0 0 144 209" fill="none" xmlns="http://www.w3.org/2000/svg">
<path d="M129.935 170.269C129.935 171.965 126.132 173.224 125.758 174.86C125.387 176.483 127.647 178.951 126.932 180.5C126.193 182.085 125.319 183.604 124.322 185.04C123.385 186.381 120.491 186.185 119.305 187.443C118.143 188.585 116.913 189.655 115.62 190.647C114.361 191.694 112.655 191.914 111.224 192.877C109.863 193.794 110.027 197.156 108.522 197.99C107.083 198.788 104.88 198.146 103.32 198.863C101.821 199.551 101.031 202.039 99.4298 202.648C97.8851 203.235 95.9734 202.982 94.3405 203.491C92.76 203.982 90.9917 203.903 89.3356 204.317C87.7274 204.719 86.4992 207.13 84.8263 207.455C83.1963 207.771 81.2862 206.927 79.6008 207.167C77.9549 207.401 76.0408 205.318 74.3477 205.475C72.6905 205.63 71.1289 206.594 69.4317 206.672C67.7676 206.748 66.1224 207.481 64.4248 207.481C62.7275 207.481 60.9758 209.074 59.312 208.997C57.6149 208.919 56.0785 206.506 54.4213 206.351C52.7281 206.194 50.7084 208.715 49.0623 208.481C47.377 208.241 46.0421 205.773 44.4122 205.456C42.7389 205.131 40.5777 206.895 38.9691 206.493C37.3129 206.079 36.3298 203.208 34.7491 202.716C33.1162 202.207 31.0921 202.896 29.5475 202.309C27.9457 201.7 25.9943 201.798 24.496 201.11C22.9352 200.393 21.8149 198.697 20.3761 197.899C18.8704 197.065 18.176 194.995 16.8148 194.078C15.3831 193.114 13.2018 193.237 11.9428 192.19C10.6135 191.085 8.12315 191.027 7.00136 189.838C5.81493 188.58 5.33483 186.468 4.39816 185.126C3.4117 183.713 5.34781 180.727 4.65908 179.233C3.94439 177.684 0.956126 177.054 0.585363 175.432C0.202948 173.737 0.00667187 172.006 0 170.269C0 168.573 2.55561 167.277 2.92958 165.641C3.3005 164.018 1.41949 161.688 2.13448 160.138C2.82346 158.645 2.73542 156.349 3.72222 154.936C4.65896 153.595 6.99667 153.069 8.18311 151.811C9.30488 150.622 11.3126 150.29 12.6418 149.185C13.9008 148.138 13.7404 144.98 15.172 144.017C16.5332 143.1 18.4337 142.682 19.9394 141.848C21.3783 141.05 23.4144 141.184 24.9752 140.468C26.4733 139.78 28.8198 141.135 30.4214 140.527C31.966 139.94 33.2187 138.657 34.8517 138.149C36.4322 137.657 37.1748 133.905 38.8309 133.491C40.4391 133.089 42.4178 133.756 44.0907 133.431C45.7207 133.114 47.9138 136.075 49.5992 135.835C51.2451 135.601 52.4761 131.649 54.1692 131.491C55.8264 131.337 57.6949 133.384 59.392 133.306C61.0562 133.229 62.7271 134.429 64.4248 134.429C66.1221 134.429 67.8132 132.783 69.477 132.859C71.1742 132.937 72.6706 135.112 74.3277 135.266C76.021 135.424 78.0996 132.116 79.7456 132.35C81.431 132.59 82.7332 135.147 84.3631 135.464C86.0365 135.789 88.1324 134.201 89.7409 134.603C91.3972 135.018 92.3937 137.736 93.9743 138.228C95.6072 138.736 96.6133 140.654 98.1579 141.241C99.7598 141.849 102.735 139.002 104.234 139.69C105.794 140.407 107.142 141.647 108.581 142.445C110.087 143.279 112.481 142.86 113.842 143.776C115.274 144.74 115.626 147.328 116.885 148.375C118.214 149.48 120.406 149.813 121.528 151.003C122.715 152.261 122.879 154.515 123.816 155.856C124.803 157.269 124.772 159.226 125.461 160.719C126.175 162.269 128.083 163.441 128.454 165.063C128.828 166.699 129.935 168.574 129.935 170.269Z" fill="#1F1F1F"/>
<path d="M41.4747 49.0774C39.3535 49.1972 37.3076 49.9055 35.5664 51.123C33.8252 52.3404 32.4576 54.0188 31.6169 55.9699C29.1519 61.9283 32.3257 68.9274 37.0902 73.2723C41.8547 77.6173 47.9749 80.1008 53.5357 83.3653C61.0048 87.7499 67.7163 93.8366 71.4535 101.65C75.1907 109.463 75.5882 119.141 71.1953 126.605C67.1179 133.533 59.704 137.68 52.6329 141.504" stroke="#102619" stroke-miterlimit="10"/>
<path d="M61.3797 12.7511C59.2585 12.8709 57.2126 13.5792 55.4714 14.7967C53.7303 16.0141 52.3626 17.6925 51.5219 19.6436C49.0569 25.602 52.2308 32.6011 56.9952 36.946C61.7597 41.291 67.88 43.7745 73.4408 47.039C80.9098 51.4236 87.6214 57.5103 91.3586 65.3235C95.0957 73.1366 95.4932 82.8149 91.1003 90.2791C87.023 97.2072 79.609 101.354 72.538 105.178" stroke="#102619" stroke-miterlimit="10"/>
<path d="M126.825 21.106C125.074 19.9022 123.023 19.2098 120.901 19.1065C118.779 19.0033 116.67 19.4932 114.811 20.5213C109.214 23.7238 107.439 31.201 108.547 37.5534C109.654 43.9057 112.973 49.6162 115.372 55.6016C118.594 63.641 120.174 72.5625 118.347 81.0284C116.519 89.4942 110.908 97.3904 102.865 100.603C95.3999 103.585 86.9991 102.325 79.0669 101.021" stroke="#102619" stroke-miterlimit="10"/>
<path d="M69.1521 96.202C75.748 96.202 81.095 93.6049 81.095 90.4012C81.095 87.1975 75.748 84.6003 69.1521 84.6003C62.5563 84.6003 57.2092 87.1975 57.2092 90.4012C57.2092 93.6049 62.5563 96.202 69.1521 96.202Z" fill="#BCD2C5"/>
<path d="M67.6592 95.2068C74.2551 95.2068 79.6021 92.6097 79.6021 89.4059C79.6021 86.2022 74.2551 83.6051 67.6592 83.6051C61.0633 83.6051 55.7163 86.2022 55.7163 89.4059C55.7163 92.6097 61.0633 95.2068 67.6592 95.2068Z" stroke="#102619" stroke-miterlimit="10"/>
<path d="M95.0283 91.2257C101.624 91.2257 106.971 88.6286 106.971 85.4249C106.971 82.2211 101.624 79.624 95.0283 79.624C88.4325 79.624 83.0854 82.2211 83.0854 85.4249C83.0854 88.6286 88.4325 91.2257 95.0283 91.2257Z" fill="#BCD2C5"/>
<path d="M93.5354 90.2306C100.131 90.2306 105.478 87.6335 105.478 84.4297C105.478 81.226 100.131 78.6289 93.5354 78.6289C86.9396 78.6289 81.5925 81.226 81.5925 84.4297C81.5925 87.6335 86.9396 90.2306 93.5354 90.2306Z" stroke="#102619" stroke-miterlimit="10"/>
<path d="M99.0093 113.121C105.605 113.121 110.952 110.524 110.952 107.32C110.952 104.117 105.605 101.519 99.0093 101.519C92.4134 101.519 87.0664 104.117 87.0664 107.32C87.0664 110.524 92.4134 113.121 99.0093 113.121Z" fill="#BCD2C5"/>
<path d="M97.5164 112.126C104.112 112.126 109.459 109.529 109.459 106.325C109.459 103.121 104.112 100.524 97.5164 100.524C90.9205 100.524 85.5735 103.121 85.5735 106.325C85.5735 109.529 90.9205 112.126 97.5164 112.126Z" stroke="#102619" stroke-miterlimit="10"/>
<path d="M96.5213 58.3828C103.117 58.3828 108.464 55.7857 108.464 52.582C108.464 49.3783 103.117 46.7811 96.5213 46.7811C89.9254 46.7811 84.5784 49.3783 84.5784 52.582C84.5784 55.7857 89.9254 58.3828 96.5213 58.3828Z" fill="#BCD2C5"/>
<path d="M95.0283 57.3876C101.624 57.3876 106.971 54.7904 106.971 51.5867C106.971 48.383 101.624 45.7859 95.0283 45.7859C88.4325 45.7859 83.0854 48.383 83.0854 51.5867C83.0854 54.7904 88.4325 57.3876 95.0283 57.3876Z" stroke="#102619" stroke-miterlimit="10"/>
<path d="M66.6641 54.8995C73.26 54.8995 78.607 52.3024 78.607 49.0987C78.607 45.895 73.26 43.2979 66.6641 43.2979C60.0682 43.2979 54.7212 45.895 54.7212 49.0987C54.7212 52.3024 60.0682 54.8995 66.6641 54.8995Z" fill="#BCD2C5"/>
<path d="M65.1712 53.9042C71.767 53.9042 77.114 51.307 77.114 48.1033C77.114 44.8996 71.767 42.3025 65.1712 42.3025C58.5753 42.3025 53.2283 44.8996 53.2283 48.1033C53.2283 51.307 58.5753 53.9042 65.1712 53.9042Z" stroke="#102619" stroke-miterlimit="10"/>
<path d="M80.0999 42.459C86.6958 42.459 92.0428 39.8619 92.0428 36.6581C92.0428 33.4544 86.6958 30.8573 80.0999 30.8573C73.504 30.8573 68.157 33.4544 68.157 36.6581C68.157 39.8619 73.504 42.459 80.0999 42.459Z" fill="#BCD2C5"/>
<path d="M78.607 41.4637C85.2028 41.4637 90.5498 38.8666 90.5498 35.6629C90.5498 32.4592 85.2028 29.8621 78.607 29.8621C72.0111 29.8621 66.6641 32.4592 66.6641 35.6629C66.6641 38.8666 72.0111 41.4637 78.607 41.4637Z" stroke="#102619" stroke-miterlimit="10"/>
<path d="M109.459 44.947C116.055 44.947 121.402 42.3499 121.402 39.1462C121.402 35.9425 116.055 33.3453 109.459 33.3453C102.864 33.3453 97.5166 35.9425 97.5166 39.1462C97.5166 42.3499 102.864 44.947 109.459 44.947Z" fill="#BCD2C5"/>
<path d="M107.967 43.9518C114.562 43.9518 119.909 41.3547 119.909 38.1509C119.909 34.9472 114.562 32.3501 107.967 32.3501C101.371 32.3501 96.0237 34.9472 96.0237 38.1509C96.0237 41.3547 101.371 43.9518 107.967 43.9518Z" stroke="#102619" stroke-miterlimit="10"/>
<path d="M131.355 61.3685C137.951 61.3685 143.298 58.7714 143.298 55.5677C143.298 52.364 137.951 49.7668 131.355 49.7668C124.759 49.7668 119.412 52.364 119.412 55.5677C119.412 58.7714 124.759 61.3685 131.355 61.3685Z" fill="#BCD2C5"/>
<path d="M129.862 60.3733C136.458 60.3733 141.805 57.7762 141.805 54.5724C141.805 51.3687 136.458 48.7716 129.862 48.7716C123.266 48.7716 117.919 51.3687 117.919 54.5724C117.919 57.7762 123.266 60.3733 129.862 60.3733Z" stroke="#102619" stroke-miterlimit="10"/>
<path d="M54.2234 32.5066C60.8193 32.5066 66.1663 29.9095 66.1663 26.7057C66.1663 23.502 60.8193 20.9049 54.2234 20.9049C47.6275 20.9049 42.2805 23.502 42.2805 26.7057C42.2805 29.9095 47.6275 32.5066 54.2234 32.5066Z" fill="#BCD2C5"/>
<path d="M52.7305 31.5112C59.3264 31.5112 64.6734 28.9141 64.6734 25.7104C64.6734 22.5067 59.3264 19.9095 52.7305 19.9095C46.1346 19.9095 40.7876 22.5067 40.7876 25.7104C40.7876 28.9141 46.1346 31.5112 52.7305 31.5112Z" stroke="#102619" stroke-miterlimit="10"/>
<path d="M61.6878 13.5969C68.2836 13.5969 73.6306 10.9998 73.6306 7.79608C73.6306 4.59236 68.2836 1.99524 61.6878 1.99524C55.0919 1.99524 49.7449 4.59236 49.7449 7.79608C49.7449 10.9998 55.0919 13.5969 61.6878 13.5969Z" fill="#BCD2C5"/>
<path d="M60.1948 12.6017C66.7907 12.6017 72.1378 10.0046 72.1378 6.80084C72.1378 3.59712 66.7907 1 60.1948 1C53.599 1 48.252 3.59712 48.252 6.80084C48.252 10.0046 53.599 12.6017 60.1948 12.6017Z" stroke="#102619" stroke-miterlimit="10"/>
<path d="M130.857 27.5303C137.453 27.5303 142.8 24.9331 142.8 21.7294C142.8 18.5257 137.453 15.9286 130.857 15.9286C124.261 15.9286 118.914 18.5257 118.914 21.7294C118.914 24.9331 124.261 27.5303 130.857 27.5303Z" fill="#BCD2C5"/>
<path d="M129.364 26.535C135.96 26.535 141.307 23.9379 141.307 20.7342C141.307 17.5305 135.96 14.9333 129.364 14.9333C122.768 14.9333 117.421 17.5305 117.421 20.7342C117.421 23.9379 122.768 26.535 129.364 26.535Z" stroke="#102619" stroke-miterlimit="10"/>
<path d="M20.8829 73.3114C27.4787 73.3114 32.8257 70.7143 32.8257 67.5106C32.8257 64.3068 27.4787 61.7097 20.8829 61.7097C14.287 61.7097 8.93994 64.3068 8.93994 67.5106C8.93994 70.7143 14.287 73.3114 20.8829 73.3114Z" fill="#BCD2C5"/>
<path d="M19.3899 72.3162C25.9858 72.3162 31.3328 69.719 31.3328 66.5153C31.3328 63.3116 25.9858 60.7145 19.3899 60.7145C12.794 60.7145 7.44702 63.3116 7.44702 66.5153C7.44702 69.719 12.794 72.3162 19.3899 72.3162Z" stroke="#102619" stroke-miterlimit="10"/>
<path d="M62.1853 70.3257C68.7812 70.3257 74.1282 67.7286 74.1282 64.5248C74.1282 61.3211 68.7812 58.724 62.1853 58.724C55.5895 58.724 50.2424 61.3211 50.2424 64.5248C50.2424 67.7286 55.5895 70.3257 62.1853 70.3257Z" fill="#BCD2C5"/>
<path d="M60.6926 69.3306C67.2885 69.3306 72.6356 66.7334 72.6356 63.5297C72.6356 60.326 67.2885 57.7289 60.6926 57.7289C54.0968 57.7289 48.7498 60.326 48.7498 63.5297C48.7498 66.7334 54.0968 69.3306 60.6926 69.3306Z" stroke="#102619" stroke-miterlimit="10"/>
<path d="M116.426 74.8043C123.022 74.8043 128.369 72.2072 128.369 69.0035C128.369 65.7998 123.022 63.2026 116.426 63.2026C109.83 63.2026 104.483 65.7998 104.483 69.0035C104.483 72.2072 109.83 74.8043 116.426 74.8043Z" fill="#BCD2C5"/>
<path d="M114.933 73.8091C121.529 73.8091 126.876 71.212 126.876 68.0082C126.876 64.8045 121.529 62.2074 114.933 62.2074C108.337 62.2074 102.99 64.8045 102.99 68.0082C102.99 71.212 108.337 73.8091 114.933 73.8091Z" stroke="#102619" stroke-miterlimit="10"/>
<path d="M87.564 76.7948C94.1599 76.7948 99.5069 74.1977 99.5069 70.994C99.5069 67.7902 94.1599 65.1931 87.564 65.1931C80.9681 65.1931 75.6211 67.7902 75.6211 70.994C75.6211 74.1977 80.9681 76.7948 87.564 76.7948Z" fill="#BCD2C5"/>
<path d="M86.0713 75.7996C92.6672 75.7996 98.0142 73.2024 98.0142 69.9987C98.0142 66.795 92.6672 64.1979 86.0713 64.1979C79.4755 64.1979 74.1284 66.795 74.1284 69.9987C74.1284 73.2024 79.4755 75.7996 86.0713 75.7996Z" stroke="#102619" stroke-miterlimit="10"/>
<path d="M89.5545 27.0327C96.1504 27.0327 101.497 24.4356 101.497 21.2319C101.497 18.0282 96.1504 15.431 89.5545 15.431C82.9586 15.431 77.6116 18.0282 77.6116 21.2319C77.6116 24.4356 82.9586 27.0327 89.5545 27.0327Z" fill="#BCD2C5"/>
<path d="M88.0618 26.0373C94.6577 26.0373 100.005 23.4402 100.005 20.2365C100.005 17.0328 94.6577 14.4357 88.0618 14.4357C81.4659 14.4357 76.1189 17.0328 76.1189 20.2365C76.1189 23.4402 81.4659 26.0373 88.0618 26.0373Z" stroke="#102619" stroke-miterlimit="10"/>
<path d="M38.2996 57.8851C44.8955 57.8851 50.2425 55.288 50.2425 52.0843C50.2425 48.8806 44.8955 46.2834 38.2996 46.2834C31.7037 46.2834 26.3567 48.8806 26.3567 52.0843C26.3567 55.288 31.7037 57.8851 38.2996 57.8851Z" fill="#BCD2C5"/>
<path d="M36.8067 56.8899C43.4025 56.8899 48.7496 54.2928 48.7496 51.089C48.7496 47.8853 43.4025 45.2882 36.8067 45.2882C30.2108 45.2882 24.8638 47.8853 24.8638 51.089C24.8638 54.2928 30.2108 56.8899 36.8067 56.8899Z" stroke="#102619" stroke-miterlimit="10"/>
<path d="M45.2664 80.2782C51.8623 80.2782 57.2093 77.6811 57.2093 74.4774C57.2093 71.2736 51.8623 68.6765 45.2664 68.6765C38.6705 68.6765 33.3235 71.2736 33.3235 74.4774C33.3235 77.6811 38.6705 80.2782 45.2664 80.2782Z" fill="#BCD2C5"/>
<path d="M43.7735 79.2828C50.3693 79.2828 55.7164 76.6857 55.7164 73.482C55.7164 70.2783 50.3693 67.6812 43.7735 67.6812C37.1776 67.6812 31.8306 70.2783 31.8306 73.482C31.8306 76.6857 37.1776 79.2828 43.7735 79.2828Z" stroke="#102619" stroke-miterlimit="10"/>
<g opacity="0.3">
<path d="M45.544 114.086C47.2298 111.069 47.5375 108.032 46.2312 107.302C44.9249 106.572 42.4993 108.425 40.8135 111.442C39.1276 114.458 38.8199 117.495 40.1262 118.225C41.4325 118.955 43.8581 117.102 45.544 114.086Z" fill="#102619"/>
<path d="M44.7566 114.542C46.4425 111.525 46.7502 108.488 45.4439 107.758C44.1376 107.028 41.712 108.881 40.0261 111.898C38.3403 114.914 38.0326 117.951 39.3389 118.681C40.6452 119.411 43.0708 117.558 44.7566 114.542Z" fill="#102619" stroke="#102619" stroke-miterlimit="10"/>
</g>
<g opacity="0.3">
<path d="M107.796 128.546C108.794 127.431 107.515 124.659 104.941 122.354C102.366 120.05 99.4693 119.085 98.4713 120.201C97.4733 121.316 98.7517 124.088 101.327 126.392C103.901 128.697 106.798 129.661 107.796 128.546Z" fill="#102619"/>
<path d="M107.523 127.678C108.521 126.563 107.243 123.791 104.668 121.486C102.093 119.182 99.1966 118.218 98.1986 119.333C97.2006 120.448 98.479 123.22 101.054 125.524C103.629 127.829 106.525 128.793 107.523 127.678Z" fill="#102619" stroke="#102619" stroke-miterlimit="10"/>
</g>
<g opacity="0.3">
<path d="M52.0624 97.1957C53.0604 96.0806 51.7821 93.3085 49.2072 91.004C46.6323 88.6995 43.7359 87.7353 42.7379 88.8504C41.7399 89.9655 43.0183 92.7376 45.5932 95.0421C48.1681 97.3466 51.0645 98.3108 52.0624 97.1957Z" fill="#102619"/>
<path d="M51.7897 96.3277C52.7877 95.2127 51.5094 92.4405 48.9345 90.1361C46.3596 87.8316 43.4632 86.8674 42.4652 87.9825C41.4672 89.0976 42.7456 91.8697 45.3205 94.1742C47.8954 96.4787 50.7917 97.4428 51.7897 96.3277Z" fill="#102619" stroke="#102619" stroke-miterlimit="10"/>
</g>
</svg>
