<svg width="468" height="506" viewBox="0 0 468 506" fill="none" xmlns="http://www.w3.org/2000/svg">
<g clip-path="url(#clip0_625_47)">
<path d="M327.982 221.567C356.107 221.567 378.907 198.764 378.907 170.635C378.907 142.505 356.107 119.702 327.982 119.702C299.857 119.702 277.057 142.505 277.057 170.635C277.057 198.764 299.857 221.567 327.982 221.567Z" fill="#FF9254"/>
<path d="M467.672 208.609C467.785 208.589 467.869 208.511 468 208.53C467.943 208.31 467.868 208.094 467.777 207.886C467.615 208.107 467.449 208.332 467.304 208.53L467.672 208.609Z" fill="white"/>
<path d="M82.8309 41.341L91.2188 34.6313C84.7026 33.9123 82.0252 37.4666 80.9295 40.2799C75.8387 38.1657 70.2969 40.9365 70.2969 40.9365L87.0795 47.0301C86.2329 44.7683 84.7591 42.7948 82.8309 41.341Z" fill="#1F1F1F"/>
<path d="M335.468 6.80367L343.856 0.0939648C337.34 -0.625055 334.662 2.92926 333.567 5.74253C328.476 3.62836 322.934 6.39908 322.934 6.39908L339.717 12.4927C338.87 10.2309 337.396 8.25747 335.468 6.80367Z" fill="#1F1F1F"/>
<path d="M458.881 272.141C458.881 277.7 458.687 283.214 458.3 288.683C455.312 331.828 440.354 373.285 415.107 408.396C411.808 413.002 408.343 417.478 404.714 421.825C395.31 433.105 384.869 443.478 373.528 452.808L323.815 423.633L294.092 354.25C294.092 354.25 338.44 264.444 458.802 266.072C458.852 268.088 458.879 270.111 458.881 272.141Z" fill="#102619"/>
<path d="M458.3 288.683C456.013 320.924 447.069 352.341 432.033 380.951C416.996 409.561 396.194 434.744 370.938 454.91L324.754 427.808L298.395 366.273C298.395 366.273 341.108 279.781 458.3 288.683Z" fill="#102619"/>
<path d="M415.107 408.396C411.808 413.002 408.343 417.478 404.714 421.825C380.395 451.048 349.321 473.903 314.182 488.41C307.067 491.344 299.784 493.932 292.334 496.172C238.541 510.48 181.551 506.861 129.998 485.864C79.0135 463.104 37.8127 422.91 13.7959 372.499C10.5682 365.713 7.66572 358.755 5.08838 351.624C50.0387 318.69 138.613 271.531 235.148 317.356C261.851 330.032 285.695 341.586 306.68 352.019C359.929 378.418 395.368 397.449 415.107 408.396Z" fill="#BCD2C5"/>
<path d="M453.387 221.51C432.755 209.925 411.199 200.068 388.941 192.041C265.868 147.5 143.827 164.666 96.0576 228.411C133.233 150.319 265.882 125.764 399.743 174.207C415.323 179.84 430.57 186.355 445.411 193.719C448.644 202.808 451.308 212.089 453.387 221.51Z" fill="white"/>
<path d="M404.714 421.825C379.575 451.958 347.263 475.283 310.751 489.656C274.238 504.029 234.698 508.987 195.768 504.075C156.839 499.163 119.769 484.538 87.9699 461.546C56.1709 438.554 30.6639 407.932 13.7957 372.499C51.3367 342.808 137.924 289.451 232.946 334.551C257.382 346.151 279.199 356.725 298.395 366.273C354.355 394.013 388.827 412.865 404.714 421.825Z" fill="#BCD2C5"/>
<path d="M338.454 476.71C330.592 481.069 322.489 484.975 314.182 488.41C285.914 500.061 255.63 506.038 225.056 506C188.877 505.986 153.195 497.583 120.81 481.452C88.4257 465.321 60.2213 441.9 38.412 413.03C94.2574 407.141 248.625 399.2 338.454 476.71Z" fill="#102619"/>
<path d="M314.182 488.41C270.348 506.437 222.076 510.731 175.75 500.724C129.423 490.718 87.2253 466.882 54.7367 432.37C75.0493 429.386 234.524 408.891 314.182 488.41Z" fill="#102619"/>
<path d="M419.661 142.457V142.464C252.699 18.9991 61.4071 105.9 59.9296 106.567V106.56C81.6115 84.8775 107.357 67.6858 135.692 55.9696C164.027 44.2533 194.395 38.2426 225.056 38.2818C306.228 38.2818 377.738 79.6518 419.661 142.457Z" fill="white"/>
<path d="M80.5797 343.989C78.9053 217.386 36.5517 98.576 36.1243 97.3916L32.2617 98.7851C32.6871 99.9637 74.8083 218.151 76.474 344.045L80.5797 343.989Z" fill="#173F26"/>
<path d="M203.939 331.501C226.461 196.357 204.166 61.7005 203.938 60.3571L199.557 61.0993C199.784 62.4361 221.951 196.385 199.556 330.772L203.939 331.501Z" fill="#173F26"/>
<path d="M209.132 258.422C240.188 258.422 265.364 207.046 265.364 143.669C265.364 80.2932 240.188 28.9166 209.132 28.9166C178.076 28.9166 152.9 80.2932 152.9 143.669C152.9 207.046 178.076 258.422 209.132 258.422Z" fill="#9BBDA8"/>
<path d="M287.168 95.8448L295.556 89.1351C289.039 88.4161 286.362 91.9704 285.266 94.7837C280.176 92.6695 274.634 95.4402 274.634 95.4402L291.416 101.534C290.57 99.2721 289.096 97.2986 287.168 95.8448Z" fill="#1F1F1F"/>
<path d="M73.321 276.674C101.566 271.581 116.039 220.727 105.649 163.088C95.2579 105.449 63.9378 62.8524 35.6932 67.9456C7.44857 73.0387 -7.02498 123.893 3.36564 181.532C13.7563 239.171 45.0763 281.768 73.321 276.674Z" fill="#9BBDA8"/>
</g>
<defs>
<clipPath id="clip0_625_47">
<rect width="468" height="506" fill="white"/>
</clipPath>
</defs>
</svg>
