<svg width="435" height="391" viewBox="0 0 435 391" fill="none" xmlns="http://www.w3.org/2000/svg">
<path d="M265.805 260.837C266.864 261.402 268.071 261.629 269.262 261.486C270.454 261.343 271.573 260.837 272.467 260.036C273.362 259.236 273.988 258.18 274.263 257.012C274.537 255.843 274.445 254.619 274 253.504C274.119 252.911 274.205 252.485 274.324 251.892C276.614 249.755 279.49 248.35 282.584 247.858C285.677 247.366 288.847 247.808 291.687 249.129C294.527 250.451 296.908 252.59 298.525 255.273C300.141 257.956 300.92 261.061 300.76 264.189C300.035 281.831 300.907 300.869 289.181 315.092C342.7 271.358 367.103 196.855 350.759 129.846C342.739 118.671 338.998 103.826 342.594 90.3725C347.107 94.7619 355.905 93.5827 354.561 85.9841C353.84 82.981 353.093 79.9869 352.372 76.9839C383.197 64.9553 391.246 110.79 354.731 129.451C357.694 142.191 359.316 155.205 359.572 168.282C363.694 156.491 370.556 145.846 379.595 137.225C388.346 129.346 399.917 124.712 410.682 119.426C423.781 112.977 438.319 125.763 433.161 139.412C424.441 138.297 418.271 148.719 426.184 154.32C412.286 177.662 385.637 192.497 358.561 192.733C355.823 219.367 347.439 245.11 333.97 268.249C351.266 241.948 384.74 249.52 411.193 248.4C412.948 248.179 414.73 248.473 416.321 249.247C417.911 250.021 419.243 251.241 420.152 252.759C421.061 254.276 421.509 256.026 421.44 257.793C421.372 259.561 420.791 261.271 419.768 262.714C416.288 262.51 412.796 262.652 409.344 263.138C407.721 263.378 406.211 264.115 405.023 265.247C403.834 266.379 403.025 267.851 402.706 269.461C402.387 271.071 402.574 272.741 403.241 274.24C403.908 275.74 405.022 276.997 406.431 277.839C383.226 299.112 347.267 303.685 319.046 290.11C310.702 300.62 301.289 310.235 290.957 318.799L249 298.799C249.072 298.261 249.166 297.715 249.253 297.185C253.02 299.28 257.03 300.906 261.192 302.027C256.716 284.964 251.728 274.97 265.804 260.837H265.805Z" fill="#102619"/>
<path d="M205.084 245.94C204.317 246.863 203.285 247.528 202.127 247.845C200.969 248.162 199.742 248.115 198.612 247.712C197.482 247.308 196.503 246.566 195.809 245.588C195.114 244.609 194.737 243.44 194.728 242.24C194.394 241.736 194.154 241.374 193.82 240.87C190.893 239.754 187.7 239.538 184.649 240.249C181.599 240.96 178.83 242.565 176.698 244.86C174.566 247.155 173.168 250.034 172.683 253.129C172.198 256.224 172.648 259.392 173.976 262.23C181.302 278.296 187.676 296.255 203.901 305.004C137.838 284.689 87.1351 224.894 76.9959 156.671C80.208 143.296 78.0729 128.136 69.6676 117.033C67.1436 122.801 58.5509 125.027 56.9298 117.483C56.465 114.429 56.0269 111.375 55.5619 108.322C22.4764 108.809 32.3117 154.293 73.1678 157.803C75.2299 170.719 78.6365 183.384 83.3321 195.591C75.0667 186.226 64.6961 178.956 53.0731 174.381C41.9966 170.385 29.5325 170.459 17.5688 169.623C3.0046 168.591 -5.63639 185.917 4.2888 196.612C11.9437 192.29 21.5896 199.615 16.3738 207.788C38.0497 224.162 68.3262 227.85 93.491 217.855C106.073 241.488 123.548 262.168 144.751 278.517C118.811 260.683 90.6666 280.322 65.7444 289.263C64.0355 289.72 62.4965 290.664 61.3152 291.981C60.1339 293.298 59.3614 294.93 59.0919 296.679C58.8224 298.427 59.0675 300.216 59.7974 301.827C60.5273 303.439 61.7104 304.803 63.2023 305.754C66.3483 304.252 69.6356 303.066 73.0159 302.214C74.6104 301.825 76.2863 301.938 77.8139 302.538C79.3416 303.138 80.6462 304.196 81.549 305.567C82.4518 306.938 82.9085 308.554 82.8566 310.195C82.8046 311.835 82.2466 313.42 81.2589 314.73C110.775 325.679 145.802 316.351 166.818 293.134C178.51 299.72 190.855 305.074 203.654 309.108L234.967 274.759C234.698 274.288 234.405 273.818 234.124 273.359C231.426 276.721 228.326 279.739 224.893 282.347C222.602 264.856 223.452 253.719 205.085 245.94L205.084 245.94Z" fill="#102619"/>
<path d="M174.297 210.798C175.491 210.677 176.619 210.192 177.528 209.409C178.438 208.626 179.084 207.582 179.381 206.419C179.677 205.256 179.609 204.03 179.185 202.907C178.761 201.784 178.002 200.819 177.011 200.141C176.78 199.583 176.613 199.181 176.382 198.623C177.091 195.571 178.695 192.802 180.989 190.668C183.282 188.535 186.161 187.135 189.255 186.648C192.349 186.162 195.518 186.61 198.356 187.936C201.194 189.262 203.571 191.405 205.183 194.091C214.418 209.141 225.756 224.459 223.951 242.804C243.996 176.659 222.715 101.205 171.786 54.691C158.898 49.8855 147.515 39.6473 143 26.4742C149.194 27.6017 155.84 21.7177 150.487 16.1592C148.214 14.0684 145.925 11.9991 143.652 9.90812C162.535 -17.264 194.771 16.2979 174.864 52.1481C184.426 61.0722 193.029 70.9715 200.532 81.6845C197.38 69.5976 197.142 56.9351 199.838 44.7385C202.71 33.3187 209.732 23.021 215.721 12.6307C223 -0.0266495 242.197 2.48197 245.526 16.6887C237.665 20.6243 238.354 32.7168 248.046 32.9545C249.522 60.08 235.671 87.254 213.326 102.546C225.902 126.182 233.296 152.227 235.016 178.946C234.71 147.468 266.72 135.092 288.055 119.412C289.389 118.25 291.032 117.501 292.784 117.256C294.536 117.012 296.321 117.283 297.922 118.036C299.523 118.789 300.87 119.991 301.799 121.497C302.728 123.002 303.199 124.745 303.154 126.514C300.151 128.285 297.332 130.349 294.737 132.677C293.524 133.782 292.681 135.236 292.326 136.838C291.971 138.441 292.12 140.114 292.753 141.628C293.385 143.143 294.471 144.424 295.861 145.297C297.251 146.171 298.877 146.593 300.516 146.505C293.113 177.104 265.812 200.949 234.815 205.414C233.749 218.791 231.295 232.021 227.493 244.891L181.512 251.682C181.271 251.195 181.045 250.689 180.821 250.201C185.117 249.84 189.352 248.954 193.433 247.564C180.203 235.894 170.491 230.379 174.296 210.798L174.297 210.798Z" fill="#102619"/>
<path d="M24.8424 131.533C28.7344 130.026 31.0399 126.61 29.9919 123.902C28.9438 121.195 24.9391 120.221 21.0471 121.728C17.1551 123.234 14.8496 126.651 15.8977 129.358C16.9457 132.066 20.9504 133.039 24.8424 131.533Z" fill="#2D96D0"/>
<path d="M97.8424 170.533C101.734 169.026 104.04 165.61 102.992 162.902C101.944 160.195 97.9391 159.221 94.0471 160.728C90.1551 162.234 87.8496 165.651 88.8977 168.358C89.9457 171.066 93.9504 172.039 97.8424 170.533Z" fill="#1F1F1F"/>
<path d="M77.8425 187.533C81.7345 186.026 84.04 182.61 82.9919 179.902C81.9438 177.195 77.9391 176.221 74.0471 177.728C70.1551 179.234 67.8496 182.651 68.8977 185.358C69.9457 188.066 73.9505 189.039 77.8425 187.533Z" fill="#FF9254"/>
<path d="M47.433 161.06C49.2185 160.638 50.1735 158.214 49.566 155.647C48.9585 153.081 47.0185 151.343 45.233 151.765C43.4474 152.188 42.4925 154.611 43.1 157.178C43.7075 159.745 45.6475 161.483 47.433 161.06Z" fill="#2D96D0"/>
<path d="M72.433 249.06C74.2185 248.638 75.1735 246.214 74.5659 243.647C73.9584 241.081 72.0185 239.343 70.233 239.765C68.4474 240.188 67.4925 242.611 68.1 245.178C68.7075 247.745 70.6475 249.483 72.433 249.06Z" fill="#1F1F1F"/>
<path d="M100.433 116.06C102.218 115.637 103.173 113.214 102.566 110.647C101.958 108.081 100.018 106.343 98.233 106.765C96.4474 107.188 95.4925 109.611 96.1 112.178C96.7075 114.745 98.6474 116.483 100.433 116.06Z" fill="#2D96D0"/>
<path d="M33.433 205.06C35.2185 204.638 36.1735 202.214 35.5659 199.647C34.9584 197.081 33.0185 195.343 31.233 195.765C29.4474 196.188 28.4925 198.611 29.1 201.178C29.7075 203.745 31.6475 205.483 33.433 205.06Z" fill="#FF9254"/>
<path d="M70.433 150.06C72.2185 149.637 73.1735 147.214 72.5659 144.647C71.9584 142.081 70.0185 140.343 68.233 140.765C66.4474 141.188 65.4925 143.611 66.1 146.178C66.7075 148.745 68.6474 150.483 70.433 150.06Z" fill="#1F1F1F"/>
<path d="M53.9159 332.799C55.7978 330.588 54.747 326.603 51.569 323.898C48.391 321.193 44.2892 320.792 42.4074 323.003C40.5255 325.214 41.5763 329.199 44.7543 331.904C47.9323 334.609 52.0341 335.01 53.9159 332.799Z" fill="#2D96D0"/>
<path d="M97.9159 292.799C99.7978 290.588 98.747 286.603 95.569 283.898C92.391 281.193 88.2892 280.792 86.4074 283.003C84.5255 285.214 85.5763 289.199 88.7543 291.904C91.9323 294.609 96.0341 295.01 97.9159 292.799Z" fill="#1F1F1F"/>
<path d="M108.916 382.799C110.798 380.588 109.747 376.603 106.569 373.898C103.391 371.193 99.2892 370.792 97.4074 373.003C95.5255 375.214 96.5763 379.199 99.7543 381.904C102.932 384.609 107.034 385.01 108.916 382.799Z" fill="#FF9254"/>
<path d="M349.988 157.137C351.955 155.381 352.56 152.848 351.338 151.479C350.116 150.11 347.531 150.424 345.563 152.18C343.595 153.937 342.99 156.47 344.212 157.839C345.434 159.208 348.02 158.894 349.988 157.137Z" fill="#2D96D0"/>
<path d="M89.9875 322.137C91.9553 320.381 92.5601 317.848 91.3383 316.479C90.1165 315.11 87.5308 315.424 85.563 317.18C83.5952 318.937 82.9905 321.47 84.2123 322.839C85.4341 324.208 88.0197 323.894 89.9875 322.137Z" fill="#1F1F1F"/>
<path d="M46.1001 141.438C48.0679 139.681 48.6727 137.148 47.4508 135.779C46.229 134.41 43.6434 134.724 41.6756 136.48C39.7078 138.237 39.103 140.77 40.3248 142.139C41.5466 143.508 44.1323 143.194 46.1001 141.438Z" fill="#2D96D0"/>
<path d="M62.9876 286.137C64.9554 284.381 65.5601 281.848 64.3383 280.479C63.1165 279.11 60.5308 279.424 58.563 281.18C56.5952 282.937 55.9905 285.47 57.2123 286.839C58.4341 288.208 61.0198 287.894 62.9876 286.137Z" fill="#FF9254"/>
<path d="M43.9876 274.137C45.9554 272.381 46.5601 269.848 45.3383 268.479C44.1165 267.11 41.5308 267.424 39.563 269.18C37.5952 270.937 36.9905 273.47 38.2123 274.839C39.4341 276.208 42.0198 275.894 43.9876 274.137Z" fill="#1F1F1F"/>
<path d="M234.387 47.8819C236.992 46.6007 237.611 42.5261 235.769 38.781C233.927 35.036 230.322 33.0387 227.717 34.32C225.112 35.6012 224.493 39.6758 226.335 43.4209C228.177 47.1659 231.782 49.1632 234.387 47.8819Z" fill="#2D96D0"/>
<path d="M401.387 198.882C403.992 197.601 404.611 193.526 402.769 189.781C400.927 186.036 397.322 184.039 394.717 185.32C392.112 186.601 391.493 190.676 393.335 194.421C395.177 198.166 398.782 200.163 401.387 198.882Z" fill="#1F1F1F"/>
<path d="M323.387 124.882C325.992 123.601 326.611 119.526 324.769 115.781C322.927 112.036 319.322 110.039 316.717 111.32C314.112 112.601 313.493 116.676 315.335 120.421C317.177 124.166 320.782 126.163 323.387 124.882Z" fill="#FF9254"/>
<path d="M268.624 91.8099C271.128 90.9798 272.689 88.8951 272.112 87.1534C271.534 85.4118 269.037 84.6728 266.533 85.5029C264.03 86.333 262.468 88.4177 263.046 90.1594C263.623 91.901 266.121 92.6399 268.624 91.8099Z" fill="#2D96D0"/>
<path d="M304.624 36.8099C307.128 35.9798 308.689 33.8951 308.112 32.1534C307.534 30.4118 305.037 29.6728 302.533 30.5029C300.03 31.333 298.468 33.4177 299.046 35.1593C299.623 36.901 302.121 37.64 304.624 36.8099Z" fill="#1F1F1F"/>
<path d="M230.624 73.8099C233.128 72.9798 234.689 70.895 234.112 69.1534C233.534 67.4118 231.037 66.6728 228.533 67.5029C226.03 68.333 224.468 70.4177 225.046 72.1594C225.623 73.901 228.121 74.6399 230.624 73.8099Z" fill="#2D96D0"/>
<path d="M309.624 82.8099C312.128 81.9798 313.689 79.895 313.112 78.1534C312.534 76.4118 310.037 75.6728 307.533 76.5029C305.03 77.333 303.468 79.4177 304.046 81.1593C304.623 82.901 307.121 83.6399 309.624 82.8099Z" fill="#FF9254"/>
<path d="M387.624 157.81C390.128 156.98 391.689 154.895 391.112 153.153C390.534 151.412 388.037 150.673 385.533 151.503C383.03 152.333 381.468 154.418 382.046 156.159C382.623 157.901 385.121 158.64 387.624 157.81Z" fill="#1F1F1F"/>
<path d="M98.0134 197.215C95.6908 197.813 93.7 199.309 92.4775 201.374C91.2551 203.439 90.9009 205.906 91.4928 208.231L130.781 361.922C131.377 364.246 132.871 366.239 134.934 367.462C136.997 368.685 139.461 369.04 141.785 368.447L358.987 312.785C361.309 312.187 363.3 310.691 364.522 308.626C365.745 306.561 366.099 304.095 365.507 301.769L326.219 148.078C325.622 145.754 324.129 143.761 322.066 142.538C320.002 141.315 317.539 140.96 315.215 141.553L98.0134 197.215Z" fill="#CCCCCC"/>
<path d="M278.929 325.532L145.679 359.745C143.172 360.386 140.515 360.004 138.29 358.683C136.064 357.362 134.453 355.21 133.81 352.699L98.1165 212.803C97.4784 210.291 97.8608 207.627 99.1797 205.396C100.499 203.165 102.646 201.549 105.152 200.903L310.542 148.168C313.049 147.527 315.706 147.909 317.931 149.23C320.157 150.551 321.768 152.703 322.411 155.214L339.658 222.81C345.165 244.496 341.864 267.49 330.479 286.748C319.094 306.005 300.555 319.953 278.929 325.532Z" fill="white"/>
<path d="M196.353 229.212L164.613 237.674C164.215 237.78 163.801 237.805 163.394 237.746C162.988 237.687 162.598 237.546 162.245 237.332C161.892 237.117 161.585 236.833 161.339 236.495C161.094 236.158 160.916 235.773 160.816 235.363C160.715 234.954 160.694 234.527 160.753 234.108C160.813 233.69 160.951 233.286 161.162 232.922C161.372 232.557 161.65 232.238 161.979 231.983C162.308 231.729 162.683 231.543 163.081 231.437L194.821 222.975C195.625 222.761 196.476 222.884 197.188 223.317C197.9 223.75 198.415 224.458 198.618 225.285C198.821 226.113 198.696 226.991 198.272 227.727C197.847 228.464 197.157 228.998 196.353 229.212Z" fill="#102619"/>
<path d="M270.291 223.356L167.414 250.014C167.016 250.117 166.601 250.141 166.195 250.083C165.788 250.025 165.396 249.886 165.043 249.676C164.689 249.465 164.38 249.185 164.134 248.854C163.888 248.522 163.708 248.145 163.607 247.743C163.505 247.341 163.483 246.923 163.542 246.513C163.601 246.102 163.739 245.707 163.949 245.35C164.159 244.993 164.437 244.681 164.766 244.433C165.095 244.184 165.47 244.003 165.868 243.9L268.746 217.243C269.144 217.14 269.558 217.117 269.964 217.175C270.371 217.234 270.762 217.372 271.115 217.583C271.468 217.794 271.776 218.073 272.023 218.405C272.269 218.736 272.448 219.113 272.549 219.514C272.65 219.916 272.673 220.334 272.614 220.744C272.555 221.154 272.417 221.549 272.208 221.906C271.998 222.263 271.721 222.574 271.392 222.823C271.063 223.072 270.689 223.253 270.291 223.356Z" fill="#102619"/>
<path d="M273.921 237.642L172.058 263.544C171.664 263.644 171.253 263.666 170.851 263.609C170.448 263.551 170.06 263.415 169.71 263.209C169.36 263.002 169.054 262.729 168.81 262.405C168.566 262.081 168.388 261.712 168.287 261.32C168.186 260.928 168.164 260.519 168.221 260.119C168.279 259.718 168.415 259.332 168.622 258.984C168.829 258.636 169.103 258.332 169.429 258.089C169.754 257.846 170.124 257.67 170.518 257.57L272.382 231.667C273.177 231.466 274.021 231.587 274.727 232.004C275.433 232.422 275.945 233.101 276.149 233.892C276.352 234.684 276.232 235.523 275.815 236.226C275.397 236.929 274.716 237.438 273.921 237.642Z" fill="#102619"/>
<path d="M277.511 252.067L175.654 277.968C175.26 278.069 174.849 278.092 174.446 278.034C174.043 277.977 173.655 277.841 173.305 277.635C172.954 277.429 172.648 277.155 172.404 276.831C172.159 276.507 171.981 276.138 171.88 275.745C171.779 275.353 171.757 274.944 171.814 274.543C171.872 274.142 172.008 273.756 172.216 273.408C172.424 273.06 172.698 272.756 173.024 272.513C173.35 272.27 173.721 272.094 174.115 271.994L275.971 246.093C276.365 245.993 276.776 245.971 277.178 246.029C277.581 246.086 277.968 246.222 278.319 246.429C278.669 246.635 278.975 246.908 279.219 247.232C279.463 247.556 279.641 247.925 279.742 248.317C279.843 248.71 279.865 249.118 279.808 249.519C279.75 249.919 279.614 250.305 279.407 250.653C279.2 251.001 278.926 251.305 278.6 251.548C278.275 251.791 277.905 251.967 277.511 252.067Z" fill="#102619"/>
<path d="M281.188 265.639L179.244 292.39C178.447 292.599 177.603 292.478 176.897 292.052C176.191 291.627 175.68 290.933 175.478 290.123C175.276 289.312 175.398 288.452 175.818 287.731C176.239 287.01 176.922 286.488 177.718 286.279L279.663 259.528C280.057 259.424 280.467 259.401 280.87 259.459C281.273 259.517 281.66 259.655 282.01 259.866C282.359 260.076 282.665 260.355 282.908 260.686C283.152 261.017 283.328 261.394 283.429 261.796C283.529 262.197 283.55 262.615 283.492 263.025C283.433 263.435 283.296 263.83 283.088 264.187C282.88 264.544 282.605 264.856 282.279 265.105C281.953 265.354 281.583 265.536 281.188 265.639Z" fill="#102619"/>
</svg>
