<svg width="188" height="67" viewBox="0 0 188 67" fill="none" xmlns="http://www.w3.org/2000/svg">
<mask id="path-1-inside-1_758_281" fill="white">
<rect x="17" y="12" width="171" height="55" rx="4"/>
</mask>
<rect x="17" y="12" width="171" height="55" rx="4" stroke="#102619" stroke-width="10" mask="url(#path-1-inside-1_758_281)"/>
<mask id="path-2-inside-2_758_281" fill="white">
<rect width="188" height="55" rx="4"/>
</mask>
<rect width="188" height="55" rx="4" stroke="#102619" stroke-width="10" mask="url(#path-2-inside-2_758_281)"/>
<path d="M43.423 34.65C43.423 35.658 43.633 36.561 44.053 37.359C44.487 38.143 45.082 38.759 45.838 39.207C46.594 39.655 47.455 39.879 48.421 39.879C49.401 39.879 50.262 39.655 51.004 39.207C51.76 38.759 52.348 38.143 52.768 37.359C53.202 36.561 53.419 35.658 53.419 34.65C53.419 33.642 53.209 32.746 52.789 31.962C52.369 31.164 51.781 30.541 51.025 30.093C50.283 29.645 49.415 29.421 48.421 29.421C47.455 29.421 46.594 29.645 45.838 30.093C45.082 30.541 44.487 31.164 44.053 31.962C43.633 32.746 43.423 33.642 43.423 34.65ZM40.798 34.65C40.798 33.544 40.987 32.529 41.365 31.605C41.743 30.681 42.275 29.883 42.961 29.211C43.661 28.525 44.473 27.993 45.397 27.615C46.335 27.237 47.343 27.048 48.421 27.048C49.527 27.048 50.542 27.237 51.466 27.615C52.39 27.993 53.195 28.525 53.881 29.211C54.581 29.883 55.12 30.681 55.498 31.605C55.876 32.529 56.065 33.544 56.065 34.65C56.065 35.742 55.876 36.757 55.498 37.695C55.12 38.633 54.588 39.445 53.902 40.131C53.216 40.817 52.404 41.356 51.466 41.748C50.542 42.126 49.527 42.315 48.421 42.315C47.329 42.315 46.314 42.126 45.376 41.748C44.438 41.356 43.626 40.817 42.94 40.131C42.268 39.445 41.743 38.633 41.365 37.695C40.987 36.757 40.798 35.742 40.798 34.65ZM71.1322 37.149L74.5762 27.3H77.4532L71.4472 42.777L66.9112 32.382L62.3752 42.777L56.3692 27.3H59.2462L62.7322 37.149L66.9112 26.565L71.1322 37.149ZM89.9803 27.3H92.4163V42.735L81.6853 32.13V42H79.2493V26.565L89.9803 37.17V27.3ZM102.669 36.414V34.314H109.746C109.774 35.392 109.634 36.414 109.326 37.38C109.018 38.332 108.556 39.179 107.94 39.921C107.324 40.663 106.554 41.251 105.63 41.685C104.72 42.105 103.684 42.315 102.522 42.315C101.416 42.315 100.394 42.133 99.4561 41.769C98.5181 41.391 97.6991 40.859 96.9991 40.173C96.3131 39.487 95.7811 38.675 95.4031 37.737C95.0251 36.799 94.8361 35.77 94.8361 34.65C94.8361 33.53 95.0251 32.508 95.4031 31.584C95.7951 30.646 96.3341 29.841 97.0201 29.169C97.7201 28.483 98.5391 27.958 99.4771 27.594C100.429 27.23 101.458 27.048 102.564 27.048C103.53 27.048 104.405 27.181 105.189 27.447C105.973 27.699 106.673 28.07 107.289 28.56C107.919 29.036 108.451 29.617 108.885 30.303L106.869 31.647C106.463 30.947 105.896 30.387 105.168 29.967C104.454 29.547 103.586 29.337 102.564 29.337C101.612 29.337 100.751 29.561 99.9811 30.009C99.2111 30.443 98.5951 31.059 98.1331 31.857C97.6711 32.641 97.4401 33.572 97.4401 34.65C97.4401 35.714 97.6641 36.652 98.1121 37.464C98.5741 38.262 99.1901 38.885 99.9601 39.333C100.73 39.781 101.598 40.005 102.564 40.005C103.222 40.005 103.81 39.914 104.328 39.732C104.846 39.55 105.294 39.291 105.672 38.955C106.05 38.619 106.365 38.234 106.617 37.8C106.869 37.366 107.058 36.904 107.184 36.414H102.669ZM115.311 34.986H117.999L122.976 42H119.994L115.311 34.986ZM112.287 27.3H114.765V42H112.287V27.3ZM113.757 29.442V27.3H116.823C117.887 27.3 118.811 27.489 119.595 27.867C120.393 28.245 121.009 28.777 121.443 29.463C121.877 30.135 122.094 30.933 122.094 31.857C122.094 32.781 121.877 33.586 121.443 34.272C121.009 34.958 120.393 35.49 119.595 35.868C118.811 36.246 117.887 36.435 116.823 36.435H113.757V34.398H116.718C117.278 34.398 117.768 34.3 118.188 34.104C118.622 33.908 118.958 33.628 119.196 33.264C119.434 32.886 119.553 32.438 119.553 31.92C119.553 31.388 119.434 30.94 119.196 30.576C118.958 30.212 118.622 29.932 118.188 29.736C117.768 29.54 117.278 29.442 116.718 29.442H113.757ZM126.31 42V39.816H133.723V42H126.31ZM126.31 29.484V27.3H133.723V29.484H126.31ZM126.31 35.196V33.054H133.303V35.196H126.31ZM124.777 27.3H127.213V42H124.777V27.3ZM138.307 42V39.816H145.72V42H138.307ZM138.307 29.484V27.3H145.72V29.484H138.307ZM138.307 35.196V33.054H145.3V35.196H138.307ZM136.774 27.3H139.21V42H136.774V27.3ZM159.502 27.3H161.938V42.735L151.207 32.13V42H148.771V26.565L159.502 37.17V27.3Z" fill="#1F1F1F"/>
</svg>
