<svg width="268" height="225" viewBox="0 0 268 225" fill="none" xmlns="http://www.w3.org/2000/svg">
<path d="M119.887 225C60.2965 225 11.9887 210.552 11.9887 192.729C11.9887 174.906 60.2965 160.458 119.887 160.458C179.478 160.458 227.786 174.906 227.786 192.729C227.786 210.552 179.478 225 119.887 225Z" fill="#F2F2F2"/>
<path d="M91.1848 81.0383C79.167 81.0383 69.4247 71.5704 69.4247 59.8912C69.4247 48.2119 79.167 38.744 91.1848 38.744C103.203 38.744 112.945 48.2119 112.945 59.8912C112.945 71.5704 103.203 81.0383 91.1848 81.0383Z" fill="#FF9254"/>
<path d="M128.171 130.808C116.154 130.808 106.411 121.34 106.411 109.661C106.411 97.9816 116.154 88.5137 128.171 88.5137C140.189 88.5137 149.931 97.9816 149.931 109.661C149.931 121.34 140.189 130.808 128.171 130.808Z" fill="#FF9254"/>
<path d="M169.781 170.555C157.763 170.555 148.021 161.087 148.021 149.407C148.021 137.728 157.763 128.26 169.781 128.26C181.799 128.26 191.541 137.728 191.541 149.407C191.541 161.087 181.799 170.555 169.781 170.555Z" fill="#FF9254"/>
<path d="M169.8 187.651V149.291" stroke="#173F26" stroke-width="2" stroke-miterlimit="10"/>
<path d="M169.8 154.716C166.718 154.716 164.219 152.287 164.219 149.291C164.219 146.295 166.718 143.866 169.8 143.866C172.883 143.866 175.382 146.295 175.382 149.291C175.382 152.287 172.883 154.716 169.8 154.716Z" fill="#173F26"/>
<path d="M169.8 172.933C169.8 172.933 170.598 156.266 186.945 158.203L169.8 172.933Z" fill="#173F26"/>
<path d="M91.1711 187.92V59.9689" stroke="#173F26" stroke-width="2" stroke-miterlimit="10"/>
<path d="M91.1712 65.333C88.0884 65.333 85.5893 62.9043 85.5893 59.9083C85.5893 56.9123 88.0884 54.4836 91.1712 54.4836C94.254 54.4836 96.7531 56.9123 96.7531 59.9083C96.7531 62.9043 94.254 65.333 91.1712 65.333Z" fill="#173F26"/>
<path d="M108.315 157.906C105.233 157.906 102.734 155.478 102.734 152.482C102.734 149.486 105.233 147.057 108.315 147.057C111.398 147.057 113.897 149.486 113.897 152.482C113.897 155.478 111.398 157.906 108.315 157.906Z" fill="#173F26"/>
<path d="M91.1712 87.6177C91.1712 87.6177 91.9686 70.9502 108.316 72.8875L91.1712 87.6177Z" fill="#173F26"/>
<path d="M91.1712 134.868C91.1712 134.868 91.9686 118.201 108.316 120.138L91.1712 134.868Z" fill="#173F26"/>
<path d="M91.1712 186.429C91.1712 186.429 87.5829 154.032 108.316 152.482" stroke="#173F26" stroke-width="2" stroke-miterlimit="10"/>
<path d="M74.0243 157.906C70.9415 157.906 68.4424 155.478 68.4424 152.482C68.4424 149.486 70.9415 147.057 74.0243 147.057C77.1071 147.057 79.6062 149.486 79.6062 152.482C79.6062 155.478 77.1071 157.906 74.0243 157.906Z" fill="#173F26"/>
<path d="M91.1687 186.429C91.1687 186.429 94.7571 154.032 74.0244 152.482" stroke="#173F26" stroke-width="2" stroke-miterlimit="10"/>
<path d="M73.6844 107.021C70.6016 107.021 68.1025 104.592 68.1025 101.596C68.1025 98.6005 70.6016 96.1718 73.6844 96.1718C76.7671 96.1718 79.2662 98.6005 79.2662 101.596C79.2662 104.592 76.7671 107.021 73.6844 107.021Z" fill="#173F26"/>
<path d="M90.8286 133.816C90.8286 133.816 94.417 103.146 73.6843 101.596" stroke="#173F26" stroke-width="2" stroke-miterlimit="10"/>
<path d="M128.151 187.74V109.637" stroke="#173F26" stroke-width="2" stroke-miterlimit="10"/>
<path d="M128.152 115.062C125.069 115.062 122.57 112.633 122.57 109.637C122.57 106.641 125.069 104.212 128.152 104.212C131.234 104.212 133.733 106.641 133.733 109.637C133.733 112.633 131.234 115.062 128.152 115.062Z" fill="#173F26"/>
<path d="M128.151 131.729C128.151 131.729 128.949 115.062 145.296 116.999L128.151 131.729Z" fill="#173F26"/>
<path d="M128.151 186.249C128.151 186.249 124.563 154.197 145.296 152.647" stroke="#173F26" stroke-width="2" stroke-miterlimit="10"/>
<path d="M145.296 158.072C142.213 158.072 139.714 155.643 139.714 152.647C139.714 149.651 142.213 147.222 145.296 147.222C148.379 147.222 150.878 149.651 150.878 152.647C150.878 155.643 148.379 158.072 145.296 158.072Z" fill="#173F26"/>
<path d="M32.3632 132.373C26.0779 132.373 20.9827 127.422 20.9827 121.313C20.9827 115.205 26.0779 110.253 32.3632 110.253C38.6484 110.253 43.7437 115.205 43.7437 121.313C43.7437 127.422 38.6484 132.373 32.3632 132.373Z" fill="#F2F2F2"/>
<path d="M211.605 63.2488C205.32 63.2488 200.225 58.2972 200.225 52.1889C200.225 46.0807 205.32 41.129 211.605 41.129C217.891 41.129 222.986 46.0807 222.986 52.1889C222.986 58.2972 217.891 63.2488 211.605 63.2488Z" fill="#F2F2F2"/>
<path d="M96.7338 22.1198C90.4485 22.1198 85.3533 17.1681 85.3533 11.0599C85.3533 4.95169 90.4485 0 96.7338 0C103.019 0 108.114 4.95169 108.114 11.0599C108.114 17.1681 103.019 22.1198 96.7338 22.1198Z" fill="#F2F2F2"/>
</svg>
