<svg width="88" height="183" viewBox="0 0 88 183" fill="none" xmlns="http://www.w3.org/2000/svg">
<path d="M50.5177 30.3934L62.3958 21.253C61.3304 13.5889 58.3564 6.29338 53.732 0C52.8815 13.7236 38.0873 22.4625 32.6704 35.1627C31.0121 39.1363 30.295 43.4218 30.5722 47.7015C30.8494 51.9811 32.1139 56.1453 34.2719 59.8854L35.0856 70.2995C41.5053 67.3028 47.1804 62.9889 51.7198 57.655C56.2591 52.3211 59.5549 46.0941 61.3801 39.4029C62.3657 35.6393 62.8598 31.77 62.8508 27.8864C56.874 29.4487 50.5177 30.3934 50.5177 30.3934Z" fill="#102619"/>
<path d="M22.4782 122.326C17.7414 123.383 13.6034 123.998 13.6034 123.998L20.9326 118.358C19.2736 113.638 18.3715 108.885 19.4485 103.973C13.8839 108.306 9.36928 113.777 6.22555 119.997C3.08182 126.217 1.38611 133.034 1.25894 139.963C1.13178 146.892 2.57628 153.763 5.48978 160.089C8.40327 166.414 12.7142 172.038 18.1163 176.56L21.76 166.735C24.8666 163.69 27.2285 160.005 28.6708 155.953C30.113 151.9 30.5986 147.584 30.0915 143.325C29.1689 136.062 25.3782 129.191 22.4782 122.326Z" fill="#102619"/>
<path d="M76.1974 101.377L87.2084 92.9036C88.1172 88.1006 88.2444 83.1886 87.5854 78.3472C80.1866 90.0647 62.902 91.0025 51.9707 99.727C48.5827 102.474 45.874 105.926 44.0453 109.828C42.2166 113.731 41.3148 117.983 41.4066 122.27L37.0794 131.83C44.1945 132.125 51.2909 130.917 57.8794 128.289C64.468 125.661 70.3922 121.676 75.2438 116.609C79.832 111.705 83.3064 105.917 85.4409 99.6212C80.5525 100.729 76.1974 101.377 76.1974 101.377Z" fill="#102619"/>
<path d="M15.9628 174.63C13.8603 177.267 11.632 179.804 9.27808 182.243C10.1528 182.501 11.0034 182.75 11.838 183C13.9004 180.824 15.8665 178.569 17.7363 176.237C18.0492 175.847 18.3622 175.449 18.6752 175.044C22.0847 170.683 25.1585 166.084 27.8717 161.284C33.1096 152.053 36.999 142.158 39.4275 131.884C39.4756 131.705 39.5157 131.533 39.5559 131.354C40.2059 128.53 40.7435 125.675 41.1608 122.812C41.2491 122.235 41.3294 121.65 41.4096 121.073C41.6102 119.489 41.7788 117.906 41.9152 116.322C42.4087 110.55 42.4248 104.749 41.9634 98.9743C41.1733 89.0985 39.0526 79.3663 35.6558 70.0271C35.415 69.3641 35.1743 68.7011 34.9095 68.0458C34.765 67.6558 34.6126 67.2658 34.4601 66.8758C30.3717 56.6016 24.762 46.9627 17.8085 38.264C17.5517 37.9442 17.2949 37.6322 17.0382 37.3201C16.4283 36.5791 15.8104 35.8459 15.1844 35.1204C15.0817 34.9939 14.9494 34.8931 14.7986 34.8262C14.6478 34.7594 14.4827 34.7285 14.3171 34.7361C14.1515 34.7437 13.9902 34.7897 13.8466 34.8701C13.7029 34.9505 13.581 35.0631 13.4911 35.1984C13.2924 35.4146 13.1812 35.6935 13.1783 35.9834C13.1753 36.2732 13.2808 36.5542 13.4751 36.7741C13.9806 37.3591 14.4862 37.952 14.9678 38.5526C15.5696 39.2624 16.1474 39.9879 16.7092 40.7211C29.1061 56.6121 36.8731 75.4541 39.1948 95.2691C40.5863 107.481 39.8292 119.834 36.9559 131.798H36.9479C35.2319 139.007 32.7719 146.029 29.6052 152.758C28.9712 154.1 28.3105 155.428 27.623 156.744C25.8418 160.168 23.8757 163.498 21.7328 166.721C19.9352 169.443 18.0118 172.079 15.9628 174.63Z" fill="#292929"/>
<path d="M17.4632 7.97339C14.9664 10.1049 12.6055 12.3821 10.3935 14.7926L14.1777 6.30031C12.7572 5.76886 11.2346 5.54433 9.71577 5.64232C8.19695 5.74031 6.71828 6.15848 5.38243 6.86777C2.26156 8.64618 0.392986 12.1029 0.0396516 15.6026C-0.19129 19.1334 0.589888 22.6573 2.2963 25.7823C5.23745 31.5197 10.0174 36.1724 15.9157 39.0394C18.8057 34.7067 21.5163 30.1505 22.6699 25.1135C23.8424 19.9945 23.2014 14.2511 19.836 10.1521C19.1499 9.32504 18.3517 8.59212 17.4632 7.97339Z" fill="#102619"/>
</svg>
