<svg width="181" height="146" viewBox="0 0 181 146" fill="none" xmlns="http://www.w3.org/2000/svg">
<g id="Group 36">
<path id="Vector" d="M78.4368 68.9721L74.6706 133.289C74.6689 134.921 74.9979 136.538 75.6389 138.046C76.28 139.555 77.2203 140.925 78.4063 142.08C79.5922 143.234 81.0004 144.149 82.5502 144.773C84.1001 145.397 85.7611 145.717 87.4383 145.716C126 144.773 131 144.773 167.358 145.716C169.035 145.717 170.696 145.397 172.246 144.773C173.796 144.149 175.204 143.234 176.39 142.08C177.576 140.925 178.516 139.555 179.157 138.046C179.798 136.538 180.127 134.921 180.126 133.289L176.359 67.4141L180.126 50.0016C180.127 48.3691 179.798 46.7524 179.157 45.2439C178.516 43.7355 177.576 42.3648 176.39 41.2105C175.204 40.0562 173.796 39.141 172.246 38.5171C170.696 37.8932 169.035 37.5729 167.358 37.5746H87.4382C85.761 37.5729 84.0999 37.8932 82.5501 38.5171C81.0003 39.141 79.5921 40.0563 78.4062 41.2106C77.2202 42.3649 76.2799 43.7355 75.6388 45.2439C74.9978 46.7524 74.6687 48.3691 74.6705 50.0016L78.4368 68.9721Z" fill="white"/>
<path id="Vector_2" d="M16.2937 32.0758L12.0986 40.2422L84.0863 81.5641L78.4371 118.222L7.5059 49.1829L3.11185 57.7364L1.72027 55.0274C0.478154 52.6095 -0.10835 49.9228 0.0164635 47.2222C0.141277 44.5216 0.973329 41.8969 2.43347 39.5974C3.89362 37.2978 5.93338 35.3996 8.35921 34.0832C10.785 32.7668 13.5163 32.0758 16.2937 32.0758Z" fill="white"/>
<path id="Vector_3" d="M99.1512 38.4911C99.1512 49.1219 112.634 57.7365 129.281 57.7365C145.928 57.7365 159.411 49.1218 159.411 38.491C159.411 38.1793 159.392 37.8861 159.374 37.5746H99.1889C99.17 37.8862 99.1512 38.1794 99.1512 38.4911Z" fill="#E6E6E6"/>
<path id="Vector_4" d="M137.755 8.03864C137.753 5.90742 136.882 3.86419 135.334 2.35719C133.785 0.85019 131.686 0.00246576 129.497 0H129.066C126.877 0.00246577 124.777 0.850186 123.229 2.35719C121.681 3.86419 120.81 5.90742 120.807 8.03864V64.1515H137.755V8.03864Z" fill="white"/>
</g>
</svg>
