<svg xmlns="http://www.w3.org/2000/svg" xmlns:xlink="http://www.w3.org/1999/xlink" width="863.994" height="668.452" viewBox="0 0 863.994 668.452">
  <defs>
    <filter id="Caminho_4" x="0" y="210.185" width="735.805" height="446.267" filterUnits="userSpaceOnUse">
      <feOffset dy="3" input="SourceAlpha"/>
      <feGaussianBlur stdDeviation="3" result="blur"/>
      <feFlood flood-opacity="0.588"/>
      <feComposite operator="in" in2="blur"/>
      <feComposite in="SourceGraphic"/>
    </filter>
    <filter id="Caminho_6" x="488.835" y="329.406" width="209.418" height="49.294" filterUnits="userSpaceOnUse">
      <feOffset dy="3" input="SourceAlpha"/>
      <feGaussianBlur stdDeviation="3" result="blur-2"/>
      <feFlood flood-opacity="0"/>
      <feComposite operator="in" in2="blur-2"/>
      <feComposite in="SourceGraphic"/>
    </filter>
    <filter id="Caminho_8" x="106.812" y="436.582" width="491.115" height="231.871" filterUnits="userSpaceOnUse">
      <feOffset dy="9" input="SourceAlpha"/>
      <feGaussianBlur stdDeviation="5" result="blur-3"/>
      <feFlood flood-opacity="0.322"/>
      <feComposite operator="in" in2="blur-3"/>
      <feComposite in="SourceGraphic"/>
    </filter>
    <filter id="Caminho_12" x="59.034" y="0" width="97.786" height="102.485" filterUnits="userSpaceOnUse">
      <feOffset dy="3" input="SourceAlpha"/>
      <feGaussianBlur stdDeviation="3" result="blur-4"/>
      <feFlood flood-opacity="0.631"/>
      <feComposite operator="in" in2="blur-4"/>
      <feComposite in="SourceGraphic"/>
    </filter>
    <filter id="Caminho_13" x="145.021" y="148.379" width="61.535" height="61.051" filterUnits="userSpaceOnUse">
      <feOffset dy="3" input="SourceAlpha"/>
      <feGaussianBlur stdDeviation="3" result="blur-5"/>
      <feFlood flood-opacity="0.459"/>
      <feComposite operator="in" in2="blur-5"/>
      <feComposite in="SourceGraphic"/>
    </filter>
    <filter id="Caminho_14" x="213.727" y="324.284" width="100.229" height="87.162" filterUnits="userSpaceOnUse">
      <feOffset dy="3" input="SourceAlpha"/>
      <feGaussianBlur stdDeviation="3" result="blur-6"/>
      <feFlood flood-opacity="0.161"/>
      <feComposite operator="in" in2="blur-6"/>
      <feComposite in="SourceGraphic"/>
    </filter>
    <filter id="Caminho_16" x="395.355" y="215.394" width="80.93" height="77.765" filterUnits="userSpaceOnUse">
      <feOffset dy="3" input="SourceAlpha"/>
      <feGaussianBlur stdDeviation="3" result="blur-7"/>
      <feFlood flood-opacity="0.588"/>
      <feComposite operator="in" in2="blur-7"/>
      <feComposite in="SourceGraphic"/>
    </filter>
    <filter id="Caminho_17" x="278.007" y="268.013" width="65.267" height="69.186" filterUnits="userSpaceOnUse">
      <feOffset dy="3" input="SourceAlpha"/>
      <feGaussianBlur stdDeviation="3" result="blur-8"/>
      <feFlood flood-opacity="0.549"/>
      <feComposite operator="in" in2="blur-8"/>
      <feComposite in="SourceGraphic"/>
    </filter>
    <filter id="Caminho_21" x="389.912" y="351.948" width="55.899" height="49.923" filterUnits="userSpaceOnUse">
      <feOffset dy="3" input="SourceAlpha"/>
      <feGaussianBlur stdDeviation="3" result="blur-9"/>
      <feFlood flood-opacity="0.431"/>
      <feComposite operator="in" in2="blur-9"/>
      <feComposite in="SourceGraphic"/>
    </filter>
  </defs>
  <g id="Plants-Your_Plantation" data-name="Plants-Your Plantation" transform="translate(-47.431 6)">
    <g transform="matrix(1, 0, 0, 1, 47.43, -6)" filter="url(#Caminho_4)">
      <path id="Caminho_4-2" data-name="Caminho 4" d="M277.911,368.908c0,40.664,15.631,87.93,36.569,122.429q5.427,8.956,11.677,17.532c17.727,24.361,40.249,46.343,66.565,65.185q2.415,1.725,4.865,3.414c.619.425,1.229.849,1.849,1.274q3.861,2.614,7.811,5.148c.831.531,1.663,1.053,2.495,1.575.708.451,1.424.893,2.141,1.336q11.5,7.112,23.8,13.454c.893.46,1.8.92,2.7,1.38.778.389,1.557.787,2.344,1.177.548.274,1.106.548,1.654.814.92.46,1.849.911,2.778,1.353q3.622,1.738,7.3,3.406c1.123.513,2.256,1.026,3.4,1.521a.067.067,0,0,0,.035.018c1.132.5,2.265,1,3.406,1.486,1.044.451,2.1.9,3.149,1.336q4.75,2,9.58,3.875c.663.265,1.336.522,2.008.778.929.354,1.849.708,2.786,1.053,1.194.442,2.38.885,3.574,1.318,1.115.407,2.229.8,3.353,1.2l.239.08c1.123.4,2.247.787,3.379,1.168q8.731,3,17.718,5.608c.752.221,1.5.433,2.256.646.336.106.681.2,1.026.292.876.248,1.752.5,2.636.734,1.079.31,2.167.6,3.264.885q4.578,1.221,9.2,2.335c1.044.257,2.079.5,3.123.743a.128.128,0,0,0,.062.018l3.131.717c1.46.336,2.937.663,4.414.964,1.707.372,3.423.725,5.148,1.079,1.07.212,2.141.425,3.211.628s2.15.416,3.22.61q8.081,1.5,16.294,2.7c2.035.292,4.069.575,6.121.849,1.256.168,2.521.327,3.786.478,1.106.133,2.22.265,3.326.389s2.211.248,3.326.371h.009c.106.018.212.027.318.035,1.813.195,3.636.372,5.458.548,1.07.106,2.141.195,3.22.283.964.088,1.937.168,2.91.239q4.365.358,8.757.61,1.42.093,2.84.159c2.017.115,4.034.2,6.059.283.84.035,1.689.071,2.53.1,2.265.08,4.538.133,6.811.177q1.924.04,3.848.053,2.282.027,4.564.027c73.606,0,158.208-25.211,227.895-61.859a489.815,489.815,0,0,0,50.748-30.58c9.43-6.519,18.329-13.225,26.591-20.089,61.576-51.04,88.228-109.856,38.869-154.616q-9.553-8.664-20.584-18.037-8.346-7.1-17.426-14.56c-86.22-70.82-168.235,5.475-255.959-65.353C528.208,160.3,277.911,221.368,277.911,368.908Z" transform="translate(-268.91 -0.32)" fill="#7ec498"/>
    </g>
    <path id="Caminho_5" data-name="Caminho 5" d="M354.8,569.207l36.294,4.706,1.849.239,48.307,6.263,130.165,21.428c9.43-6.519,23.844-19.138,31.453-26.747L436,574.01l-43.645-2.583-1.831-.106Z" transform="translate(125.359 -65)" fill="#e0e0e0"/>
    <g transform="matrix(1, 0, 0, 1, 47.43, -6)" filter="url(#Caminho_6)">
      <path id="Caminho_6-2" data-name="Caminho 6" d="M334.128,368.207,525.546,399.5c-5.4-4.923-22.983-19.491-29.231-24.505Z" transform="translate(163.71 -32.8)" fill="#e0e0e0"/>
    </g>
    <path id="Caminho_7" data-name="Caminho 7" d="M820.541,527.448c1.886,6.877,12.934,31.551,15.7,36.03l89.047-23.122,91.456-13.148-89.723,1.728Z" transform="translate(-749.86 -90.152)" fill="#e0e0e0"/>
    <g transform="matrix(1, 0, 0, 1, 47.43, -6)" filter="url(#Caminho_8)">
      <path id="Caminho_8-2" data-name="Caminho 8" d="M442.228,621.645c61.31,43.911,143.232,70.722,233.22,70.722,73.606,0,158.208-25.211,227.895-61.859-5.511-14.286-13.189-25.865-23.866-31.73-.265-.15-.54-.3-.814-.433a33.742,33.742,0,0,0-14.719-3.724c-62.805-1.769-55.729,69-134.457-28.307-48.962-60.514-104.425-81.337-142.338-74.606-.7.124-1.389.257-2.079.4-21.973,4.564-37.692,18.629-42.23,39.709-12.384,57.5,23.884,103.5-42.46,89.343A137.219,137.219,0,0,0,442.228,621.645Z" transform="translate(-320.42 -47.92)" fill="#303030"/>
    </g>
    <path id="Caminho_9" data-name="Caminho 9" d="M725.212,769.673c30.854-21.6,50.062-51.09,57.09-87.65,5.219-27.145,3.719-57.69-4.457-90.788a272.485,272.485,0,0,0-26.926-68.3c-62.486-111.072-68.125-183.446-61.854-224.6,6.877-45.127,29.219-63.868,29.444-64.052l-.964-1.863c-.231.188-23.162,19.365-30.2,65.408-4.06,26.544-2.15,56.81,5.677,89.959,9.741,41.255,28.735,87.157,56.455,136.432a270.01,270.01,0,0,1,26.681,67.676c13.409,54.285,15.306,128.857-51.805,175.841Z" transform="translate(-376.976 -135.567)" fill="#303030"/>
    <path id="Caminho_10" data-name="Caminho 10" d="M14.932,208.262c24.324-18.63,23.647-48.155,18.8-69.643a111.866,111.866,0,0,0-9.557-26.526C2.28,69.52.3,41.864,2.5,26.16,4.881,9.108,12.529,2.107,12.606,2.038L11.642,0C11.3.3,3.284,7.643.76,25.7c-3.287,23.515,4.1,53.053,21.966,87.794a108.964,108.964,0,0,1,9.313,25.842c4.658,20.629,5.321,48.964-17.967,66.8Z" transform="matrix(0.985, 0.174, -0.174, 0.985, 443.244, 267.952)" fill="#303030"/>
    <path id="Caminho_11" data-name="Caminho 11" d="M21.488,237.13l.861-2.418C-.939,214.4-.275,182.141,4.382,158.653a135.609,135.609,0,0,1,9.313-29.425C31.558,89.673,38.948,56.04,35.66,29.265,33.136,8.7,25.118.345,24.778,0l-.965,2.319c.077.08,7.764,8.156,10.124,27.577,2.171,17.87.171,49.333-21.687,97.734a139.237,139.237,0,0,0-9.557,30.2C-2.158,182.3-2.836,215.916,21.488,237.13Z" transform="matrix(0.839, -0.545, 0.545, 0.839, 166.957, 80.311)" fill="#f3f3f3"/>
    <g transform="matrix(1, 0, 0, 1, 47.43, -6)" filter="url(#Caminho_12)">
      <path id="Caminho_12-2" data-name="Caminho 12" d="M4.941,54.506a26.537,26.537,0,1,0,44.451-29C41.385,13.231,1.067,0,1.067,0S-3.068,42.231,4.941,54.506Z" transform="translate(68.03 32.85) rotate(-30)" fill="#303030"/>
    </g>
    <g transform="matrix(1, 0, 0, 1, 47.43, -6)" filter="url(#Caminho_13)">
      <path id="Caminho_13-2" data-name="Caminho 13" d="M2.519,27.789A13.53,13.53,0,1,0,25.182,13C21.1,6.746.544,0,.544,0S-1.564,21.531,2.519,27.789Z" transform="translate(154.02 174.73) rotate(-48)" fill="#303030"/>
    </g>
    <g transform="matrix(1, 0, 0, 1, 47.43, -6)" filter="url(#Caminho_14)">
      <path id="Caminho_14-2" data-name="Caminho 14" d="M1.079,5.568c1.7-.4,41.761-9.713,55.118-3.353A27.423,27.423,0,0,1,44.362,54.4a26.981,26.981,0,0,1-5.927-.655,27.507,27.507,0,0,1-5.821-2.008C19.257,45.366,1.247,8.39.487,6.815L0,5.825Zm32.3,44.565A25.651,25.651,0,1,0,55.437,3.817c-3.114-1.486-7.873-2.043-13.3-2.043-14.861,0-34.729,4.2-39.558,5.272C5.591,13.1,21.752,44.6,33.375,50.133Z" transform="translate(222.73 346.44) rotate(-13)" fill="#f3f3f3"/>
    </g>
    <path id="Caminho_15" data-name="Caminho 15" d="M711.627,224.138a27.312,27.312,0,0,0,18.464-7.146c10.934-9.97,17.424-50.586,17.7-52.31l.171-1.09-1.1.07c-1.742.111-42.784,2.835-53.718,12.8h0a27.41,27.41,0,0,0,18.489,47.672Zm34.229-58.63c-1.132,6.66-7.445,41.5-16.956,50.178a25.653,25.653,0,1,1-34.569-37.912h0C703.842,169.1,739.119,166.022,745.856,165.508Z" transform="translate(-345.63 -127.184)" fill="#303030"/>
    <g transform="matrix(1, 0, 0, 1, 47.43, -6)" filter="url(#Caminho_16)">
      <path id="Caminho_16-2" data-name="Caminho 16" d="M632.025,302.244a26.537,26.537,0,1,0,35.76,39.219c10.83-9.875,17.417-51.794,17.417-51.794S642.855,292.369,632.025,302.244Z" transform="translate(-218.51 -67.74)" fill="#303030" stroke="#303030" stroke-width="1"/>
    </g>
    <g transform="matrix(1, 0, 0, 1, 47.43, -6)" filter="url(#Caminho_17)">
      <path id="Caminho_17-2" data-name="Caminho 17" d="M.344,11.951A15.171,15.171,0,0,1,15.108,0a15.506,15.506,0,0,1,3.238.354C26.254,2.07,40.31,19.293,40.9,20.018l.7.858-.991.5c-.778.389-17.709,8.775-26.573,8.775a9.777,9.777,0,0,1-2.105-.2A15.141,15.141,0,0,1,.344,11.951ZM3.9,22.389a13.231,13.231,0,0,0,8.412,5.829c6.351,1.38,22.327-5.953,26.5-7.944-2.972-3.538-14.489-16.816-20.85-18.2A13.369,13.369,0,0,0,3.9,22.389Z" transform="translate(287.01 309.67) rotate(-59)" fill="#f3f3f3"/>
    </g>
    <path id="Caminho_19" data-name="Caminho 19" d="M12.216,338.575Z" transform="translate(899.209 17.625)" fill="#575a89"/>
    <g transform="matrix(1, 0, 0, 1, 47.43, -6)" filter="url(#Caminho_21)">
      <path id="Caminho_21-2" data-name="Caminho 21" d="M2.519,27.789A13.53,13.53,0,1,0,25.182,13C21.1,6.746.544,0,.544,0S-1.564,21.531,2.519,27.789Z" transform="matrix(0.1, 0.99, -0.99, 0.1, 433.23, 358.52)" fill="#303030" stroke="#303030" stroke-width="1"/>
    </g>
  </g>
</svg>
