<svg xmlns="http://www.w3.org/2000/svg" xmlns:xlink="http://www.w3.org/1999/xlink" width="228.271" height="332.986" viewBox="0 0 228.271 332.986">
  <defs>
    <filter id="Ret창ngulo_15" x="148.633" y="272.9" width="60.086" height="60.086" filterUnits="userSpaceOnUse">
      <feOffset dy="3" input="SourceAlpha"/>
      <feGaussianBlur stdDeviation="3" result="blur"/>
      <feFlood flood-opacity="0.329"/>
      <feComposite operator="in" in2="blur"/>
      <feComposite in="SourceGraphic"/>
    </filter>
    <filter id="Caminho_39" x="140.881" y="265.148" width="62.301" height="62.301" filterUnits="userSpaceOnUse">
      <feOffset dy="3" input="SourceAlpha"/>
      <feGaussianBlur stdDeviation="3" result="blur-2"/>
      <feFlood flood-opacity="0.561"/>
      <feComposite operator="in" in2="blur-2"/>
      <feComposite in="SourceGraphic"/>
    </filter>
    <filter id="Caminho_42" x="103.905" y="84.361" width="74.548" height="40.104" filterUnits="userSpaceOnUse">
      <feOffset dy="3" input="SourceAlpha"/>
      <feGaussianBlur stdDeviation="3" result="blur-3"/>
      <feFlood flood-opacity="0.612"/>
      <feComposite operator="in" in2="blur-3"/>
      <feComposite in="SourceGraphic"/>
    </filter>
    <filter id="Caminho_43" x="33.105" y="7.445" width="69.089" height="45.283" filterUnits="userSpaceOnUse">
      <feOffset dy="3" input="SourceAlpha"/>
      <feGaussianBlur stdDeviation="3" result="blur-4"/>
      <feFlood flood-opacity="0.612"/>
      <feComposite operator="in" in2="blur-4"/>
      <feComposite in="SourceGraphic"/>
    </filter>
    <filter id="Caminho_44" x="28.186" y="24.264" width="74.326" height="40.283" filterUnits="userSpaceOnUse">
      <feOffset dy="3" input="SourceAlpha"/>
      <feGaussianBlur stdDeviation="3" result="blur-5"/>
      <feFlood flood-opacity="0.612"/>
      <feComposite operator="in" in2="blur-5"/>
      <feComposite in="SourceGraphic"/>
    </filter>
    <filter id="Caminho_45" x="112.206" y="0" width="40.302" height="74.303" filterUnits="userSpaceOnUse">
      <feOffset dy="3" input="SourceAlpha"/>
      <feGaussianBlur stdDeviation="3" result="blur-6"/>
      <feFlood flood-opacity="0.612"/>
      <feComposite operator="in" in2="blur-6"/>
      <feComposite in="SourceGraphic"/>
    </filter>
    <filter id="Caminho_46" x="179.795" y="104.104" width="48.476" height="66.232" filterUnits="userSpaceOnUse">
      <feOffset dy="3" input="SourceAlpha"/>
      <feGaussianBlur stdDeviation="3" result="blur-7"/>
      <feFlood flood-opacity="0.612"/>
      <feComposite operator="in" in2="blur-7"/>
      <feComposite in="SourceGraphic"/>
    </filter>
    <filter id="Caminho_47" x="81.097" y="32.506" width="118.913" height="252.756" filterUnits="userSpaceOnUse">
      <feOffset dy="3" input="SourceAlpha"/>
      <feGaussianBlur stdDeviation="3" result="blur-8"/>
      <feFlood flood-opacity="0"/>
      <feComposite operator="in" in2="blur-8"/>
      <feComposite in="SourceGraphic"/>
    </filter>
    <filter id="Elipse_2" x="0" y="7.13" width="45.262" height="45.262" filterUnits="userSpaceOnUse">
      <feOffset dy="3" input="SourceAlpha"/>
      <feGaussianBlur stdDeviation="3" result="blur-9"/>
      <feFlood flood-opacity="0.612"/>
      <feComposite operator="in" in2="blur-9"/>
      <feComposite in="SourceGraphic"/>
    </filter>
  </defs>
  <g id="undraw_delivery_address_03n0" transform="translate(9 6)">
    <g transform="matrix(1, 0, 0, 1, -9, -6)" filter="url(#Ret창ngulo_15)">
      <rect id="Ret창ngulo_15-2" data-name="Ret창ngulo 15" width="42.086" height="42.086" transform="translate(157.63 278.9)" fill="#e0e0e0"/>
    </g>
    <g transform="matrix(1, 0, 0, 1, -9, -6)" filter="url(#Caminho_39)">
      <path id="Caminho_39-2" data-name="Caminho 39" d="M340.345,749.5h-44.3V705.2h44.3Zm-42.086-2.215H338.13V707.417H298.259Z" transform="translate(-146.16 -434.05)" fill="#303030"/>
    </g>
    <g transform="matrix(1, 0, 0, 1, -9, -6)" filter="url(#Caminho_42)">
      <path id="Caminho_42-2" data-name="Caminho 42" d="M284.528,509.507c15.615.335,28.037,11.651,28.037,11.651s-12.9,10.773-28.511,10.438-28.037-11.651-28.037-11.651S268.913,509.172,284.528,509.507Z" transform="translate(-143.11 -419.14)" fill="#f3f3f3"/>
    </g>
    <g transform="matrix(1, 0, 0, 1, -9, -6)" filter="url(#Caminho_43)">
      <path id="Caminho_43-2" data-name="Caminho 43" d="M200.181,449.858c14.108,6.7,30.285,2.157,30.285,2.157s-6.7-15.412-20.8-22.114-30.285-2.157-30.285-2.157S186.074,443.156,200.181,449.858Z" transform="translate(-137.27 -412.79)" fill="#f3f3f3"/>
    </g>
    <g transform="matrix(1, 0, 0, 1, -9, -6)" filter="url(#Caminho_44)">
      <path id="Caminho_44-2" data-name="Caminho 44" d="M201.209,444.585c15.554-1.421,29.169,8.427,29.169,8.427s-11.6,12.154-27.158,13.575-29.169-8.427-29.169-8.427S185.656,446.007,201.209,444.585Z" transform="translate(-136.87 -414.18)" fill="#303030"/>
    </g>
    <g transform="matrix(1, 0, 0, 1, -9, -6)" filter="url(#Caminho_45)">
      <path id="Caminho_45-2" data-name="Caminho 45" d="M265.157,445.277c-1.491,15.548,8.3,29.206,8.3,29.206s12.205-11.549,13.7-27.1-8.3-29.206-8.3-29.206S266.648,429.729,265.157,445.277Z" transform="translate(-143.8 -412.18)" fill="#303030"/>
    </g>
    <g transform="matrix(1, 0, 0, 1, -9, -6)" filter="url(#Caminho_46)">
      <path id="Caminho_46-2" data-name="Caminho 46" d="M343.986,549.219c-8.158,13.319-5.351,29.886-5.351,29.886s16.034-5.027,24.192-18.346,5.351-29.886,5.351-29.886S352.144,535.9,343.986,549.219Z" transform="translate(-149.37 -420.77)" fill="#303030"/>
    </g>
    <g transform="matrix(1, 0, 0, 1, -9, -6)" filter="url(#Caminho_47)">
      <path id="Caminho_47-2" data-name="Caminho 47" d="M312.175,688.123l1.189-.8a37.248,37.248,0,0,1-6.574-20.656c.033-10.8,5.339-20.794,10.471-30.457.952-1.794,1.9-3.581,2.815-5.368a117.179,117.179,0,0,0,9.114-22.88c7.96-29.58.123-64.478-20.963-93.353C291.5,491.7,266.566,471.666,232,453.367l-.671,1.268c34.37,18.195,59.146,38.088,75.742,60.814,20.832,28.527,28.584,62.97,20.736,92.134a115.788,115.788,0,0,1-9.006,22.6c-.91,1.78-1.856,3.561-2.805,5.348-5.213,9.817-10.6,19.968-10.638,31.126A38.7,38.7,0,0,0,312.175,688.123Z" transform="translate(-141.23 -414.86)" fill="#303030"/>
    </g>
    <g transform="matrix(1, 0, 0, 1, -9, -6)" filter="url(#Elipse_2)">
      <circle id="Elipse_2-2" data-name="Elipse 2" cx="13.631" cy="13.631" r="13.631" transform="translate(9 13.13)" fill="#303030"/>
    </g>
  </g>
</svg>
